SplineFontDB: 3.0
FontName: AdlamCWC
FullName: AdlamCWC
FamilyName: AdlamCWC
Weight: Regular
Copyright: Copyright (c) 2016, Craig Cornelius
UComments: "2016-12-21: Created with FontForge (http://fontforge.org)"
FontLog: "Adlam font, based on shapes from Unicode proposal http://www.unicode.org/L2/L2014/14219r-n4628-adlam.pdf.+AAoACgAA-Craig Cornelius+AAoA"
Version: 001.000
ItalicAngle: 0
UnderlinePosition: -102
UnderlineWidth: 51
Ascent: 819
Descent: 205
InvalidEm: 0
LayerCount: 2
Layer: 0 0 "Back" 1
Layer: 1 0 "Fore" 0
XUID: [1021 542 1552056636 9137163]
FSType: 0
OS2Version: 0
OS2_WeightWidthSlopeOnly: 0
OS2_UseTypoMetrics: 1
CreationTime: 1482387637
ModificationTime: 1484613196
PfmFamily: 17
TTFWeight: 400
TTFWidth: 5
LineGap: 92
VLineGap: 92
OS2TypoAscent: 0
OS2TypoAOffset: 1
OS2TypoDescent: 0
OS2TypoDOffset: 1
OS2TypoLinegap: 92
OS2WinAscent: 0
OS2WinAOffset: 1
OS2WinDescent: 0
OS2WinDOffset: 1
HheadAscent: 0
HheadAOffset: 1
HheadDescent: 0
HheadDOffset: 1
OS2CapHeight: 0
OS2XHeight: 0
OS2Vendor: 'PfEd'
Lookup: 258 0 0 "Alif +- lengthener" { "Alif +- lengthener" [150,15,0] } []
Lookup: 260 0 0 "'mark' Mark Positioning lookup 0" { "'mark' Mark Positioning lookup 0-1"  } ['mark' ('DFLT' <'dflt' > ) ]
MarkAttachClasses: 1
DEI: 91125
LangName: 1033
Encoding: Custom
UnicodeInterp: none
NameList: AGL For New Fonts
DisplaySize: -48
AntiAlias: 1
FitToEm: 1
WinInfo: 0 16 12
BeginPrivate: 0
EndPrivate
TeXData: 1 0 0 346030 173015 115343 0 1048576 115343 783286 444596 497025 792723 393216 433062 380633 303038 157286 324010 404750 52429 2506097 1059062 262144
AnchorClass2: "MyAnchor1" "'mark' Mark Positioning lookup 0-1" 
BeginChars: 150 89

StartChar: ADLAM_CAPITAL_LETTER_ALIF
Encoding: 0 125184 0
Width: 792
VWidth: 0
GlyphClass: 2
Flags: HW
HStem: -19 66<340 506> 671 69<135 160>
VStem: 178 70<136 375> 573 80<126 320>
AnchorPoint: "MyAnchor1" 473 791 basechar 0
LayerCount: 2
Back
Fore
SplineSet
410 -19 m 0
 318 -19 189 56 178 140 c 0
 176 155 164 671 157 671 c 1
 150 676 114 696 114 705 c 1
 114 705 165 739 193 739 c 0
 210 739 222 706 235 706 c 0
 247 706 247 399 247 218 c 0
 247 112 340 47 427 47 c 0
 502 47 573 96 573 211 c 0
 573 217 573 224 573 230 c 0
 566 376 460 418 375 418 c 0
 341 418 310 411 290 402 c 9
 383 480 l 17
 450 473 517 460 578 460 c 0
 603 460 628 465 657 476 c 9
 583 402 l 17
 583 401 l 0
 583 390 651 397 653 247 c 0
 653 246 653 245 653 244 c 0
 653 91 557 -19 410 -19 c 0
EndSplineSet
Validated: 1
Comment: "Adlam script letter alif."
EndChar

StartChar: ADLAM_CAPITAL_LETTER_DAALI
Encoding: 1 125185 1
Width: 700
VWidth: 0
GlyphClass: 2
Flags: HW
LayerCount: 2
Back
Fore
SplineSet
120 14 m 1x88
 130 30 152 72 188 80 c 1
 292 80 373 67 421 67 c 0
 453 67 471.018554688 71.046875 470 82 c 0
 466 125 406 172 270 249 c 0
 176.823242188 301.754882812 121 304 106 362 c 0
 100 386 98 437 98 488 c 0
 98 518 98 548 98 571 c 0xa8
 98 596 99 622 99 646 c 9
 80 660 l 25
 178 722 l 17xc0
 178 642 167 584 167 519 c 0xa0
 167 487 170 453 178 414 c 8
 194 344 318 298 370 258 c 0
 400 234 452 200 468 200 c 0
 473 200 468 204 468 214 c 2
 454 648 l 25
 440 658 l 25
 538 722 l 25xd0
 538 60 l 17x84
 551 54 571 48 571 42 c 0
 571 28 539 14 526 0 c 9
 484 2 l 25
 476 40 l 25
 438 0 l 18
 436 -2 427 -3 414 -3 c 0
 405 -3 396 -3 386 -3 c 0
 301 -3 194 -2 120 14 c 1x88
EndSplineSet
Validated: 524321
EndChar

StartChar: glyph35
Encoding: -1 52 2
Width: 1000
VWidth: 0
LayerCount: 2
Back
SplineSet
432 0 m 0
 568 0 697.991515935 109.862133939 706 240 c 0
 714 370 592 351 640 398 c 26
 714 470 l 25
 673 464 651.00702772 454.650905202 610 454 c 0
 547 453 462.626448737 475.134026746 450 466 c 10
 356 398 l 17
 428 406 471 428 526 392 c 24
 590 350 633 298 626 222 c 24
 618 135 581 44 494 42 c 24
 396 40 338 120 310 214 c 24
 257 392 314 504 302 690 c 0
 300.442800441 714.136593163 272 720 248 718 c 24
 218 716 207 696 180 682 c 25
 222 656 l 18
 225.373770492 653.91147541 228 310 246 122 c 1028
EndSplineSet
Fore
Validated: 1
EndChar

StartChar: ADLAM_CAPITAL_LETTER_LAAM
Encoding: 2 125186 4
Width: 824
VWidth: 0
GlyphClass: 2
Flags: HW
HStem: 18 77<126 285> 727 47<267 468>
VStem: 112 61<387 591> 566 75<110 470>
LayerCount: 2
Back
Fore
SplineSet
90 20 m 17
 90 20 131 95 157 95 c 0
 158 95 158 95 159 95 c 0
 425 55 561 -11 561 214 c 0
 561 279 566 351 566 421 c 0
 566 582 541 727 377 727 c 0
 376 727 376 727 375 727 c 0
 206 726 173 610 173 553 c 0
 173 495 187 435 187 397 c 0
 187 373 181 358 162 358 c 0
 125 358 112 425 112 468 c 0
 112 626 218 774 328 774 c 0
 541 774 608 732 627 544 c 0
 630 516 641 354 641 229 c 0
 641 165 638 110 630 89 c 9
 630 89 594 5 565 5 c 1
 561 -1 545 -4 521 -4 c 0
 448 -4 306 18 237 18 c 0
 184 18 137 4 105 -2 c 25
 90 20 l 17
EndSplineSet
Validated: 33
EndChar

StartChar: ADLAM_CAPITAL_LETTER_MIIM
Encoding: 3 125187 5
Width: 852
VWidth: 0
GlyphClass: 2
Flags: HW
HStem: -15 88<157 457> -5 55<373 665> 210 73<306 496> 705 62<316 519>
VStem: 111 70<378 569> 679 58<65 284>
LayerCount: 2
Back
Fore
SplineSet
467 283 m 0x3c
 540 283 575 313 613 366 c 0
 634 395 647 456 647 510 c 0
 647 552 639 590 621 609 c 0
 579 653 522 705 393 705 c 0
 308 705 231 676 201 592 c 0
 189 557 181 515 181 475 c 0
 181 418 197 364 235 338 c 0
 300 294 394 283 467 283 c 0x3c
103 -15 m 2xbc
 102 -15 l 0
 96 -15 94 -12 94 -8 c 0
 94 10 141 57 157 68 c 0
 162 72 178 73 201 73 c 0xbc
 291 73 492 50 598 50 c 0
 635 50 660 53 666 60 c 0
 675 72 679 95 679 122 c 0
 679 207 644 339 644 339 c 2
 644 344 642 346 639 346 c 0
 615 346 512 210 436 210 c 0
 287 210 115 277 111 452 c 0
 111 455 111 457 111 460 c 0
 111 548 143 610 210 673 c 0
 275 734 338 767 425 767 c 0
 432 767 439 767 446 767 c 8
 565 759 714 694 721 638 c 0
 727 592 737 414 737 269 c 0
 737 188 734 118 725 87 c 0
 718 62 685 24 640 -5 c 0x7c
 103 -15 l 2xbc
EndSplineSet
Validated: 1
EndChar

StartChar: ADLAM_CAPITAL_LETTER_BA
Encoding: 4 125188 6
Width: 824
VWidth: 0
GlyphClass: 2
Flags: HW
HStem: 0 22G<197 197> 289 66<260 412> 692 49<511 623>
VStem: 188 66<455 704> 426 37<366 592> 668 58<468 643>
LayerCount: 2
Back
SplineSet
407.551757812 256 m 1050
258.047851562 59.3916015625 m 1050
EndSplineSet
Fore
SplineSet
481 357 m 0
 569 377 657 440 667 530 c 0
 668 539 668 548 668 557 c 0
 668 644 618 692 567 692 c 0
 515 692 463 643 463 534 c 0
 463 512 465 487 470 460 c 0
 479 405 473 357 481 357 c 0
233 760 m 0
 247 760 254 743 254 688 c 0
 254 649 247 514 247 435 c 0
 247 400 248 377 252 377 c 2
 252 377 338 354 386 354 c 0
 402 354 414 358 416 365 c 0
 424 396 426 429 426 464 c 0
 426 508 419 553 419 594 c 0
 419 614 421 634 426 651 c 0
 446 719 488 741 582 741 c 0
 676 741 725 633 726 586 c 0
 726 585 726 583 726 582 c 0
 726 490 708 464 660 412 c 24
 604 351 473 307 473 307 c 1
 473 190 l 18
 473 155 506 148 547 148 c 0
 576 148 609 151 637 151 c 0
 657 151 675 149 688 143 c 0
 696 138 699 130 699 120 c 0
 699 91 676 51 676 51 c 1
 676 51 676 51 676 52 c 0
 676 57 663 82 446 96 c 0
 408 98 422 301 410 301 c 0
 410 301 387 289 371 289 c 24
 328 289 260 305 260 305 c 1
 258 59 l 25
 258 59 268 25 276 23 c 0
 278 23 l 0
 278 19 197 0 197 0 c 1
 197 0 196 643 188 670 c 0
 181 692 165 696 165 711 c 0
 165 746 217 760 233 760 c 0
EndSplineSet
Validated: 1
EndChar

StartChar: ADLAM_CAPITAL_LETTER_SINNYIIYHE
Encoding: 5 125189 7
Width: 858
VWidth: 0
GlyphClass: 2
Flags: HW
HStem: -6 66<399 668> 157 64<264 337> 170 32<507 568>
VStem: 155 59<526 664> 163 68<299 476> 399 61<317 641> 669 66<78 384> 673 76<384 623>
LayerCount: 2
Back
Fore
SplineSet
147 14 m 25xa6
 190 70 l 25
 190 70 413 76 454 76 c 0
 493 76 556 59 653 59 c 0
 658 59 663 59 669 59 c 9
 667 279 l 26
 667 279 575 170 530 170 c 0xa6
 485 170 440 213 409 241 c 2
 397 252 l 18
 397 252 342 157 288 157 c 0
 285 157 283 158 280 158 c 0
 235 166 164 211 163 240 c 10xce
 155 664 l 26
 214 702 l 26xd4
 231 299 l 18
 231 299 259 221 305 221 c 0xcc
 306 221 306 221 307 221 c 0
 354 223 399 229 399 270 c 26
 397 641 l 26
 456 690 l 26
 460 317 l 26
 460 317 526 209 546 203 c 0
 547 203 548 202 549 202 c 0
 575 202 668 266 669 334 c 10xae
 673 623 l 26
 659 639 l 26
 749 690 l 26xa5
 735 78 l 26
 667 0 l 18
 667 0 643 -6 576 -6 c 0
 543 -6 499 -5 442 0 c 0
 251 16 262 9 147 14 c 25xa6
EndSplineSet
Validated: 1
EndChar

StartChar: ADLAM_CAPITAL_LETTER_PE
Encoding: 6 125190 8
Width: 718
VWidth: 0
GlyphClass: 2
Flags: HW
HStem: -1 41<456 582>
VStem: 182 65<69 332 332 569 622 629> 186 68<586 629> 563 50<274 520>
LayerCount: 2
Back
Fore
SplineSet
407 623 m 1xd0
 407 623 274 613 251 543 c 0
 245 523 243 482 243 434 c 0
 243 373 246 297 246 228 c 0
 246 211 246 194 245 178 c 0
 245 164 244 151 244 141 c 0
 244 53 263 62 356 59 c 0
 357 59 357 59 358 59 c 0
 428 59 561 170 563 395 c 0
 563 396 563 398 563 399 c 0
 563 622 407 623 407 623 c 1xd0
186 629 m 26xb0
 249 670 l 26
 253 586 l 18xb0
 253 586 334 668 429 668 c 0
 430 668 431 668 432 668 c 0
 527 666 613 576 613 380 c 0
 613 378 613 375 613 373 c 0
 611 211 450 98 450 74 c 0
 450 72 452 71 455 70 c 2
 454 67 453 64 453 62 c 0
 453 44 495 40 536 40 c 0
 576 40 616 44 616 44 c 2
 569 -25 l 26
 548 0 l 2
 548 0 511 -1 462 -1 c 0
 367 -1 224 2 205 20 c 0
 186 37 182 144 182 227 c 0xd0
 182 284 184 332 184 332 c 1
 186 629 l 26xb0
EndSplineSet
Validated: 1
EndChar

StartChar: ADLAM_CAPITAL_LETTER_BHE
Encoding: 7 125191 9
Width: 782
VWidth: 0
Flags: HW
HStem: 658 64<272 507>
VStem: 140 63<416 579> 149 62<-32 75> 501 66<96 256> 509 64<486 569> 519 54<264 406 413 568>
LayerCount: 2
Back
SplineSet
148.671875 -4.095703125 m 1
 154.888671875 114.034179688 308.416015625 253.952148438 308.416015625 253.952148438 c 17
 325.874023438 282.154296875 158.912109375 251.904296875 140.48046875 446.463867188 c 1
 161.984375 636.927734375 240.83203125 620.543945312 240.83203125 645.120117188 c 10
 240.83203125 675.83984375 l 26
 277.696289062 704.51171875 l 26
 349.375976562 721.919921875 l 26
 419.0078125 722.944335938 l 18
 496.834960938 724.088867188 539.673828125 749.4140625 603.328125 797.696289062 c 0
 646.966796875 830.795898438 561.34375 723.967773438 518.3359375 687.103515625 c 0
 469.92578125 645.610351562 425.15234375 658.431640625 358.591796875 656.383789062 c 0
 321.391601562 655.239257812 279.744140625 656.383789062 264.383789062 648.192382812 c 0
 204.206054688 616.096679688 199.872070312 552.959960938 203.967773438 479.232421875 c 0
 208.586914062 396.087890625 281.05078125 338.279296875 363.711914062 329.727539062 c 0
 393.408203125 326.65625 505.877929688 381.977539062 517.311523438 458.751953125 c 0
 524.48046875 506.879882812 506.826171875 567.624023438 509.120117188 569.34375 c 10
 591.040039062 630.784179688 l 26
 595.135742188 595.967773438 l 26
 572.608398438 579.583984375 l 26
 565.440429688 96.255859375 l 30
 603.328125 65.5361328125 l 26
 552.127929688 10.240234375 l 26
 500.927734375 47.103515625 l 26
 513.215820312 405.50390625 l 26
 349.375976562 268.288085938 l 26
 281.791992188 211.967773438 237.759765625 138.240234375 215.232421875 77.82421875 c 4
 200.668945312 38.7666015625 222.400390625 -7.16796875 199.872070312 -48.1279296875 c 4
 189.310546875 -67.330078125 147.6484375 -23.5517578125 148.671875 -4.095703125 c 1
EndSplineSet
Fore
SplineSet
149 -4 m 1xb0
 155 114 308 254 308 254 c 17
 309 256 310 257 310 258 c 0
 310 281 170 270 140 446 c 1
 149 645 212 619 212 644 c 9
 236 659 249 691 278 705 c 16
 302 716 318 722 343 722 c 0
 345 722 347 722 349 722 c 0
 356 722 363 722 370 722 c 0
 462 722 529 742 603 798 c 0
 609 802 612 804 614 804 c 0
 615 804 616 804 616 803 c 0
 616 792 553 717 518 687 c 0
 488 661 451 657 413 657 c 0
 398 657 383 658 368 658 c 0
 335 658 302 655 272 639 c 0
 219 611 203 566 203 505 c 0
 203 497 204 488 204 479 c 0
 209 396 281 338 364 330 c 0
 365 330 365 330 366 330 c 0
 399 330 506 384 517 459 c 0
 518 467 519 475 519 484 c 0xc4
 519 523 509 562 509 568 c 0x88
 509 569 l 10
 591 631 l 26
 595 596 l 26
 573 580 l 26x84
 566 96 l 26
 603 66 l 26
 552 10 l 26
 501 47 l 26
 513 406 l 26
 349 268 l 26
 281 212 239 138 216 78 c 0
 212 66 211 54 211 41 c 0
 211 29 212 16 212 3 c 0
 212 -14 210 -31 201 -48 c 0
 199 -51 196 -39 193 -39 c 0
 177 -39 149 -21 149 -5 c 0
 149 -4 l 1xb0
EndSplineSet
Validated: 1
EndChar

StartChar: ADLAM_CAPITAL_LETTER_RA
Encoding: 8 125192 10
Width: 1024
VWidth: 0
Flags: HW
HStem: 0 61<316 559> 15 53<339 652> 225 42<350 498>
VStem: 214 74<82 258 292 632> 230 58<408 696> 668 52<453 717>
LayerCount: 2
Back
SplineSet
199.6796875 704.51171875 m 26
 281.599609375 757.759765625 l 26
 283.6484375 333.82421875 l 1050
EndSplineSet
Fore
SplineSet
667 -14 m 25x74
 634 0 l 18xb4
 609 11 584 15 561 15 c 0x74
 514 15 471 0 423 0 c 0
 386 0 348 -8 315 -8 c 0
 282 -8 254 0 237 33 c 0
 219 68 214 113 214 163 c 0xb4
 214 222 220 289 220 357 c 0
 220 364 220 372 220 379 c 0
 220 386 220 394 220 401 c 0
 220 483 230 574 230 635 c 0
 230 662 228 683 222 696 c 9
 202 711 l 25
 288 764 l 26xac
 286 340 l 18
 286 287 348 267 408 267 c 0
 436 267 462 272 483 279 c 0
 599 318 648 367 658 537 c 0
 661 577 668 621 668 651 c 0
 668 670 665 683 656 686 c 9
 617 688 l 26
 708 763 l 18
 709 763 l 0
 717 763 720 694 720 625 c 0
 720 571 718 518 714 499 c 0
 685 373 548 258 462 229 c 0
 453 226 443 225 433 225 c 0
 384 225 334 258 307 258 c 0
 295 258 288 251 288 233 c 10
 288 125 l 18
 288 73 342 61 402 61 c 0xb4
 447 61 496 68 529 68 c 0
 531 68 534 68 536 68 c 0
 539 68 542 67 545 67 c 0
 606 67 662 81 689 81 c 0
 699 81 706 79 706 73 c 0
 706 73 706 73 706 72 c 9
 705 32 690 4 667 -14 c 25x74
EndSplineSet
Validated: 1
EndChar

StartChar: ADLAM_CAPITAL_LETTER_E
Encoding: 9 125193 11
Width: 1024
VWidth: 0
Flags: HW
LayerCount: 2
Back
Fore
SplineSet
556 76 m 0
 677 74 727 82 732 158 c 0
 736 226 656 313 566 317 c 24
 471 322 370 253 366 176 c 0
 361 78 472 77 556 76 c 0
282 119 m 17
 293 95 253 153 494 362 c 0
 509 375 723 488 737 563 c 0
 755 658 625 696 528 700 c 0
 248 712 288 613 266 490 c 0
 243 361 241 188 282 119 c 17
267 18 m 4
 232 0 202 48 194 150 c 0
 191 185 205 506 230 588 c 0
 255 670 382 746 421 752 c 0
 502 765 602 766 691 745 c 0
 726 737 798 674 802 604 c 24
 805 541 751 518 706 473 c 24
 662 430 587 379 587 379 c 10
 506 323 772 460 786 229 c 0
 792 137 735 63 646 25 c 0
 529 -25 441 79 321 37 c 26
 299 38 286 28 267 18 c 4
EndSplineSet
Validated: 33
EndChar

StartChar: ADLAM_CAPITAL_LETTER_FA
Encoding: 10 125194 12
Width: 1024
VWidth: 0
Flags: HW
LayerCount: 2
Back
Fore
SplineSet
321 182 m 4
 291 348 282 542 302 610 c 0
 315 653 428 749 447 762 c 0
 459 770 625 777 650 754 c 0
 650 754 654 628 642 643 c 10
 642 643 617 705 581 717 c 24
 527 735 488 730 433 715 c 24
 397 705 373 690 359 655 c 0
 336 600 347 502 347 502 c 26
 345 417 384 604 548 598 c 0
 720 592 632 407 660 274 c 0
 680 177 643 50 671 18 c 10
 687 0 l 26
 648 -45 l 26
 607 -23 l 18
 607 -23 602 182 605 313 c 0
 609 526 609 555 509 547 c 0
 386 537 328 453 353 330 c 0
 360 294 349 269 366 236 c 24
 382 204 435 176 435 176 c 22
 469 147 323 171 321 182 c 4
EndSplineSet
Validated: 33
EndChar

StartChar: ADLAM_CAPITAL_LETTER_I
Encoding: 11 125195 13
Width: 1024
VWidth: 0
Flags: HW
VStem: 732 70<344 626>
LayerCount: 2
Back
SplineSet
156.671875 380.927734375 m 1052
525.311523438 -12.2880859375 m 24,1,2
 412.671875 -10.240234375 326.65625 40.9599609375 283.6484375 145.408203125 c 24,3,4
 220.16015625 301.055664062 397.311523438 452.608398438 283.6484375 577.536132812 c 26,5,-1
 263.16796875 600.064453125 l 26,6,-1
 324.608398438 630.784179688 l 26,7,-1
 353.280273438 614.400390625 l 26,8,-1
 359.423828125 198.65625 l 26,9,10
 360.448242188 102.400390625 463.872070312 9.2158203125 551.935546875 45.0556640625 c 24,11,12
 675.83984375 95.232421875 675.83984375 217.087890625 717.82421875 344.064453125 c 24,13,14
 746.49609375 430.080078125 786.431640625 505.856445312 730.112304688 577.536132812 c 26,15,-1
 715.776367188 595.967773438 l 26,16,-1
 803.83984375 636.927734375 l 26,17,-1
 801.791992188 583.6796875 l 26,18,19
 794.624023438 409.599609375 846.84765625 295.935546875 773.120117188 137.215820312 c 24,20,21
 726.015625 34.81640625 637.952148438 -14.3359375 525.311523438 -12.2880859375 c 24,1,2
EndSplineSet
Fore
SplineSet
525 -12 m 24
 412 -10 307 34 284 145 c 0
 249 313 291 410 284 578 c 24
 283 590 256 591 263 600 c 24
 279 622 298 627 325 631 c 24
 337 633 352 627 353 614 c 24
 366 452 302 341 355 187 c 24
 387 96 468 37 563 45 c 4
 800 65 718 197 732 344 c 4
 741 434 731 487 730 578 c 24
 730 587 709 590 716 596 c 24
 746 620 766 642 804 637 c 24
 824 634 803 604 802 584 c 0
 792 410 818 303 784 137 c 4
 762 27 638 -14 525 -12 c 24
EndSplineSet
Validated: 33
EndChar

StartChar: ADLAM_CAPITAL_LETTER_O
Encoding: 12 125196 14
Width: 916
VWidth: 0
Flags: HW
HStem: 0 77<450 707> 683 49<437 604>
VStem: 121 64<287 446>
LayerCount: 2
Back
Fore
SplineSet
248 76 m 17
 182 111 122 248 121 361 c 0
 121 362 121 362 121 363 c 0
 121 514 361 731 543 732 c 0
 544 732 546 732 547 732 c 0
 660 732 771 692 801 577 c 0
 802 573 803 568 803 563 c 0
 803 516 750 456 750 456 c 2
 750 456 748 683 479 683 c 0
 477 683 475 683 473 683 c 0
 383 682 185 554 185 403 c 0
 185 396 186 389 187 382 c 0
 209 202 291 77 530 77 c 0
 533 77 536 77 539 77 c 0
 703 79 783 92 783 92 c 2
 797 16 l 26
 764 -41 l 2
 707 0 l 26
 193 14 l 2
 248 76 l 17
EndSplineSet
Validated: 1
EndChar

StartChar: NameMe.13
Encoding: 13 125197 15
Width: 1024
VWidth: 0
Flags: HW
HStem: 538 45<436 634>
VStem: 294 61<566 743> 308 61<290 482>
LayerCount: 2
Back
SplineSet
699.391601562 212.9921875 m 30
 697.34375 280.576171875 613.375976562 111.616210938 547.83984375 129.024414062 c 28
 436.223632812 158.719726562 361.471679688 206.84765625 316.416015625 313.34375 c 20
 302.724609375 345.616210938 298.081054688 376.020507812 298.262695312 405.50390625 c 6
 298.840820312 499.510742188 348.467773438 584.162109375 310.272460938 690.17578125 c 14
 293.887695312 735.232421875 l 30
 355.328125 770.047851562 l 30
 381.952148438 512 l 30
 389.120117188 440.3203125 480.255859375 576.51171875 551.935546875 585.727539062 c 28
 607.232421875 592.896484375 688.127929688 497.6640625 691.200195312 552.959960938 c 30
 701.440429688 714.751953125 l 30
 674.81640625 722.944335938 l 30
 750.591796875 780.288085938 l 30
 773.120117188 16.3837890625 l 30
 787.456054688 0 l 30
 742.400390625 -45.0556640625 l 30
 705.536132812 -12.2880859375 l 30
 699.391601562 212.9921875 l 30
EndSplineSet
Fore
SplineSet
542 538 m 0xa0
 421 536 368 501 370 380 c 4
 371 295 427 204 517 194 c 0
 642 180 700 250 693 359 c 0
 685 483 653 540 542 538 c 0xa0
699 213 m 26
 697 281 667 123 548 129 c 0
 433 135 304 224 308 396 c 0xa0
 314 693 294 735 294 735 c 1
 307 759 355 770 355 770 c 2xc0
 355 770 343 664 368 583 c 0
 388 517 423 578 552 583 c 0
 650 587 691 505 696 553 c 0
 718 769 675 723 675 723 c 0
 683 749 761 780 761 780 c 2
 761 780 730 412 759 19 c 0
 760 11 787 0 787 0 c 2
 742 -45 l 26
 742 -45 709 -31 706 -12 c 24
 692 75 699 213 699 213 c 26
EndSplineSet
Validated: 33
EndChar

StartChar: ADLAM_CAPITAL_LETTER_YHE
Encoding: 14 125198 16
Width: 1024
VWidth: 0
Flags: HW
HStem: 2 55<369 724>
VStem: 202 68<138 280>
LayerCount: 2
Back
SplineSet
201.727539062 192.51171875 m 4
 201.727539062 313.801757812 349.137695312 446.416992188 394.240234375 491.51953125 c 4
 424.959960938 522.240234375 621.568359375 454.65625 572.416015625 503.807617188 c 30
 402.431640625 673.791992188 l 30
 476.16015625 727.040039062 l 30
 476.16015625 727.040039062 514.452148438 710.296875 527.360351562 690.17578125 c 4
 596.9921875 581.631835938 721.919921875 495.616210938 721.919921875 495.616210938 c 30
 662.528320312 440.3203125 l 30
 386.047851562 432.127929688 l 30
 291.83984375 429.055664062 269.311523438 304.127929688 269.311523438 216.064453125 c 4
 269.311523438 79.82421875 410.936523438 45.345703125 562.17578125 55.2958984375 c 4
 717.82421875 65.5361328125 788.524414062 65.072265625 785.408203125 57.34375 c 14
 734.208007812 -65.5361328125 l 30
 723.967773438 0 l 30
 355.328125 0 l 30
 259.072265625 0 201.727539062 108.543945312 201.727539062 192.51171875 c 4
EndSplineSet
Fore
SplineSet
202 195 m 4
 202 316 349 449 394 494 c 4
 425 525 621 457 572 506 c 30
 402 676 l 30
 476 729 l 30
 476 729 514 712 527 692 c 4
 597 583 722 498 722 498 c 30
 663 442 l 30
 386 434 l 30
 292 431 269 306 269 218 c 4
 269 82 411 47 562 57 c 4
 718 67 788 67 785 59 c 14
 734 -63 l 30
 724 2 l 30
 355 2 l 30
 259 2 202 111 202 195 c 4
EndSplineSet
Validated: 33
EndChar

StartChar: ADLAM_CAPITAL_LETTER_WAW
Encoding: 15 125199 17
Width: 1024
VWidth: 0
Flags: HW
HStem: 288 62<354 528> 610 63<562 711>
VStem: 278 67<146 466> 282 74<70 227> 653 76<37 574>
LayerCount: 2
Back
Fore
SplineSet
396 -35 m 8xd8
 342 -19 286 -3 282 53 c 0xd8
 280 80 278 152 278 230 c 0
 278 326 282 430 296 461 c 0
 335 543 485 650 642 670 c 0
 667 673 681 674 691 674 c 0
 713 674 707 669 732 668 c 1
 732 668 729 536 729 378 c 0
 729 267 730 143 736 43 c 8
 737 27 769 18 769 18 c 26
 744 -45 l 26
 744 -45 666 -45 663 -10 c 0
 656 66 653 155 653 241 c 0
 653 429 665 606 665 606 c 1
 665 606 638 610 601 610 c 0
 552 610 485 603 439 567 c 0
 339 489 356 485 352 422 c 0
 351 406 344 381 344 364 c 0xe8
 344 351 348 341 359 341 c 0
 360 341 l 2
 360 341 432 350 494 350 c 0
 509 350 523 349 536 348 c 8
 552 347 568 324 568 324 c 26
 568 223 l 26
 568 223 532 274 497 283 c 16
 482 287 461 288 443 288 c 0
 395 288 347 279 347 279 c 10
 355 70 l 26
 355 70 378 34 398 20 c 24
 417 7 456 0 456 0 c 18
 460 -2 462 -4 462 -6 c 0
 462 -17 429 -36 406 -36 c 0
 403 -36 399 -36 396 -35 c 8xd8
EndSplineSet
Validated: 1
EndChar

StartChar: ADLAM_CAPITAL_LETTER_NUN
Encoding: 16 125200 18
Width: 1024
VWidth: 0
Flags: HW
HStem: 681 52<417 613>
VStem: 205 69<126 258> 251 63<510 611> 597 74<87 319> 607 70<189 416> 677 59<551 630>
LayerCount: 2
Back
Fore
SplineSet
597 92 m 14x94
 607 416 l 26x88
 677 467 l 25
 675 358 671 249 671 139 c 0
 671 58 761 71 761 68 c 2
 761 68 760 67 757 66 c 2
 758 66 759 64 759 63 c 0
 759 56 716 34 686 34 c 0
 645 34 597 63 597 92 c 14x94
205 168 m 8xc4
 208 280 282 335 365 410 c 0
 422 461 468 469 542 500 c 0
 618 532 677 535 677 582 c 1
 668 665 564 681 476 681 c 0
 402 681 325 663 314 600 c 0
 310 579 317 482 306 482 c 0
 288 482 251 532 251 561 c 0xa4
 257 636 398 733 526 733 c 0
 623 733 736 684 736 600 c 0
 736 545 648 488 568 469 c 0
 500 452 273 398 273 208 c 0
 273 110 336 86 372 78 c 0
 420 70 531 100 531 94 c 0
 531 80 432 11 363 11 c 0
 270 11 205 77 205 168 c 8xc4
EndSplineSet
Validated: 33
EndChar

StartChar: ADLAM_CAPITAL_LETTER_KAF
Encoding: 17 125201 19
Width: 1024
VWidth: 0
Flags: HW
HStem: 6 47<163 396> 297 88<269 430>
VStem: 480 88<379 670> 497 72<92 322> 806 92<18 280> 806 84<19 379>
LayerCount: 2
Back
Fore
SplineSet
103 6 m 10xd8
 163 53 l 26
 497 63 l 26xd8
 490 309 l 26
 489 363 405 297 351 297 c 0
 277 297 151 321 167 340 c 10
 224 410 l 26
 269 385 l 30
 480 379 l 30
 482 670 l 26
 232 682 l 26
 298 743 l 18
 317 761 462 736 566 737 c 24
 705 738 923 750 923 750 c 10
 851 680 l 26
 566 672 l 26
 568 383 l 26
 569 304 688 395 767 416 c 0
 816 429 894 458 894 438 c 10
 890 49 l 26xe4
 890 37 905 28 898 18 c 24
 885 -2 871 -15 847 -18 c 0
 820 -21 762 -6 783 6 c 10
 806 18 l 26
 802 379 l 26
 617 326 l 26
 568 322 l 26
 568 92 l 26
 484 -4 l 18
 470 -20 359 4 278 6 c 24
 210 8 70 -27 103 6 c 10xd8
EndSplineSet
Validated: 33
EndChar

StartChar: ADLAM_CAPITAL_LETTER_YA
Encoding: 18 125202 20
Width: 1024
VWidth: 0
Flags: HW
HStem: -5 55<245 414> 388 67<346 615>
VStem: 175 74<510 600> 671 78<501 611>
LayerCount: 2
Back
Fore
SplineSet
225 499 m 0
 206 499 167 527 175 554 c 24
 194 614 230 641 279 681 c 26
 343 734 l 18
 366 753 654 742 685 693 c 0
 700 668 751 624 749 570 c 0
 745 459 639 445 644 437 c 2
 626 414 773 344 777 214 c 4
 781 99 716 0 640 -5 c 0
 459 -17 368 -5 194 -5 c 24
 175 -5 147 -5 147 -5 c 10
 128 34 l 26
 193 85 l 18
 227 112 238 49 317 50 c 0
 413 51 459 44 552 50 c 0
 689 59 722 62 710 200 c 0
 694 376 585 387 474 388 c 0
 353 389 317 386 296 351 c 0
 273 313 230 345 247 353 c 18
 203 355 335 457 458 455 c 0
 612 452 669 441 671 529 c 0
 673 645 587 674 456 677 c 0
 278 681 296 651 249 593 c 0
 225 563 263 499 225 499 c 0
EndSplineSet
Validated: 33
EndChar

StartChar: ADLAM_CAPITAL_LETTER_U
Encoding: 19 125203 21
Width: 1024
VWidth: 0
Flags: HW
LayerCount: 2
Back
Fore
SplineSet
675 608 m 0
 658 639 590 488 542 334 c 0
 494 180 376 72 376 72 c 10
 358 43 426 47 460 45 c 24
 504 43 512 30 552 50 c 24
 594 72 658 113 664 159 c 0
 671 216 689 581 675 608 c 0
439 206 m 0
 477 291 514 341 509 434 c 0
 503 545 468 591 386 614 c 0
 282 643 273 547 267 477 c 0
 257 360 240 291 265 176 c 0
 276 126 323 36 353 78 c 18
 353 78 414 151 439 206 c 0
674 117 m 0
 595 37 501 -30 430 -23 c 0
 191 0 174 144 176 307 c 0
 179 522 273 670 428 688 c 0
 529 700 582 554 592 565 c 10
 741 737 l 26
 749 231 l 26
 739 191 l 18
 719 148 739 129 722 92 c 24
 695 37 668 14 631 -35 c 17
 636 -16 657 25 663 47 c 0
 676 93 674 117 674 117 c 0
EndSplineSet
Validated: 33
EndChar

StartChar: ADLAM_CAPITAL_LETTER_JIIM
Encoding: 20 125204 22
Width: 1024
VWidth: 0
Flags: HW
HStem: -4 66<297 737> 689 46<593 720>
LayerCount: 2
Back
Fore
SplineSet
821 -4 m 18
 807 -21 629 -6 506 -4 c 0
 361 -2 123 -18 133 -4 c 10
 198 70 l 18
 206 82 408 57 530 61 c 0
 634 65 758 18 786 69 c 0
 832 154 787 585 787 585 c 18
 788 630 709 692 638 689 c 0
 591 687 518 697 511 647 c 0
 497 551 603 537 579 464 c 0
 534 324 554 315 390 173 c 0
 321 113 546 326 523 440 c 24
 499 563 425 667 300 675 c 4
 157 684 185 607 187 560 c 4
 192 456 180 380 216 283 c 26
 232 238 l 26
 259 204 l 18
 273 188 197 186 167 206 c 0
 132 230 121 347 116 442 c 0
 112 520 87 588 124 621 c 0
 194 683 254 713 351 729 c 0
 410 739 439 681 499 682 c 24
 570 683 602 738 673 735 c 24
 749 732 819 708 836 666 c 0
 886 543 893 211 873 68 c 0
 868 34 855 -5 821 -4 c 18
EndSplineSet
Validated: 33
EndChar

StartChar: ADLAM_CAPITAL_LETTER_CHI
Encoding: 21 125205 23
Width: 1024
VWidth: 0
Flags: HW
HStem: 632 55<458 612>
VStem: 237 53<510 625> 241 57<441 622> 623 65<65 621>
LayerCount: 2
Back
Fore
SplineSet
650 14 m 30x90
 623 36 l 26
 625 458 l 26
 625 486 624 588 618 590 c 25
 618 634 558 631 515 632 c 0
 465 633 433 609 425 609 c 10
 380 608 l 26
 458 679 l 18
 463 684 516 687 554 687 c 0
 598 687 624 679 666 664 c 24
 678 659 688 650 688 637 c 26
 688 637 682 301 687 86 c 24
 687 76 700 65 700 65 c 26
 650 14 l 30x90
595 72 m 10
 548 12 l 18
 543 4 471 -6 325 -16 c 0
 221 -23 175 49 174 133 c 24
 173 237 299 323 321 356 c 0
 331 371 251 371 241 424 c 0xb0
 235 457 246 576 237 625 c 0
 216 639 l 26
 290 698 l 26xd0
 298 483 l 26xb0
 300 432 359 417 411 414 c 24
 473 410 604 508 562 461 c 0
 511 404 471 376 447 373 c 0
 356 361 258 306 234 203 c 0
 217 126 241 56 374 55 c 0
 464 54 620 103 595 72 c 10
EndSplineSet
Validated: 33
EndChar

StartChar: ADLAM_CAPITAL_LETTER_HA
Encoding: 22 125206 24
Width: 1024
VWidth: 0
Flags: HW
VStem: 652 50<106 266>
LayerCount: 2
Back
Fore
SplineSet
730 315 m 0
 738 284 703 223 702 152 c 0
 700 46 538 -21 402 -14 c 0
 300 -9 180 -32 129 -4 c 0
 115 3 96 79 101 88 c 0
 185 96 l 26
 185 96 189 70 202 68 c 4
 341 42 563 69 563 69 c 26
 648 64 654 171 652 256 c 0
 650 328 594 507 353 510 c 0
 281 511 238 465 241 487 c 0
 243 502 252 476 278 553 c 0
 284 572 310 693 329 694 c 26
 382 698 l 26
 353 567 l 18
 348 544 653 626 730 315 c 0
EndSplineSet
Validated: 33
EndChar

StartChar: ADLAM_CAPITAL_LETTER_QAAF
Encoding: 23 125207 25
Width: 1024
VWidth: 0
Flags: HW
HStem: 620 53<276 384>
VStem: 147 77<419 537> 442 66<400 555>
LayerCount: 2
Back
Fore
SplineSet
442 444 m 0
 442 530 412 620 311 620 c 0
 268 620 242 600 233 546 c 0
 228 516 223 498 224 469 c 0
 225 433 248 417 271 389 c 0
 297 358 311 343 364 343 c 0
 448 343 442 405 442 444 c 0
663 -2 m 22
 650 -13 506 -1 407 0 c 24
 295 1 108 -12 120 0 c 10
 177 56 l 26
 177 56 659 37 674 50 c 0
 697 70 685 443 685 443 c 18
 685 460 591 388 568 369 c 0
 543 349 471 327 440 302 c 0
 361 239 313 212 224 167 c 24
 214 162 193 183 204 187 c 0
 274 215 365 268 369 291 c 0
 380 351 263 272 214 308 c 0
 169 341 147 382 147 440 c 0
 147 491 170 557 216 615 c 0
 238 642 331 673 353 673 c 0
 411 673 451 651 482 602 c 0
 498 576 510 523 508 471 c 24
 506 423 461 364 472 353 c 0
 480 345 546 379 586 406 c 0
 656 452 670 461 684 545 c 0
 689 572 695 590 681 613 c 26
 671 629 l 26
 799 678 l 26
 803 651 l 26
 803 651 783 637 782 624 c 0
 757 403 767 140 753 72 c 0
 748 46 663 -2 663 -2 c 22
EndSplineSet
Validated: 33
EndChar

StartChar: ADLAM_CAPITAL_LETTER_GA
Encoding: 24 125208 26
Width: 1024
VWidth: 0
Flags: HW
HStem: -13 60<335 626> 0 59<212 395> 329 56<288 500>
VStem: 155 108<589 719> 634 66<56 208> 671 13<726 728>
LayerCount: 2
Back
Fore
SplineSet
553 -13 m 0xb8
 472 -13 288 0 171 0 c 4
 147 0 119 12 119 25 c 1
 119 37 148 73 181 87 c 16
 182 87 184 88 185 88 c 0
 195 88 197 67 210 65 c 0
 250 60 282 59 314 59 c 0x78
 322 59 330 59 338 59 c 0
 402 59 519 47 562 47 c 0
 614 47 634 59 634 100 c 0xb8
 634 112 632 127 629 145 c 0
 609 266 539 329 381 329 c 0
 230 329 155 410 155 490 c 0
 155 560 160 676 160 719 c 0
 160 719 198 740 224 740 c 0
 225 740 224 740 225 740 c 0
 258 739 262 701 262 668 c 0
 262 641 223 575 234 519 c 8
 248 442 267 385 366 385 c 0
 411 385 470 394 511 412 c 0
 578 442 589 473 589 508 c 0
 589 548 593 598 593 634 c 0
 593 646 592 659 588 674 c 8
 585 685 549 675 558 682 c 24
 597 712 671 737 671 737 c 1
 681 727 684 709 684 686 c 0xb4
 684 624 677 532 652 493 c 24
 617 440 532 385 532 385 c 17
 532 357 699 333 699 196 c 1
 699 128 698 104 683 54 c 1
 657 3 604 -13 553 -13 c 0xb8
EndSplineSet
Validated: 33
EndChar

StartChar: ADLAM_CAPITAL_LETTER_NYA
Encoding: 25 125209 27
Width: 1024
VWidth: 0
Flags: HW
HStem: 66 63<317 489> 666 49<311 515>
VStem: 171 56<506 604> 182 62<190 308> 579 51<517 598> 624 52<140 169 169 274>
LayerCount: 2
Back
Fore
SplineSet
446 129 m 0xd4
 447 129 449 129 450 129 c 0
 598 129 624 186 624 211 c 0
 624 212 624 213 624 213 c 0
 622 298 491 400 389 400 c 0
 386 400 382 399 379 399 c 0
 289 393 244 340 244 259 c 0
 244 151 352 130 446 129 c 0xd4
618 169 m 0
 618 169 504 72 416 67 c 0
 406 66 396 66 387 66 c 0
 324 66 275 79 227 112 c 0xe4
 193 135 182 172 182 214 c 0xd0
 182 218 182 221 182 225 c 0
 186 324 254 378 304 411 c 0
 305 411 l 0
 305 418 171 439 171 546 c 0
 171 547 171 548 171 549 c 0
 172 614 258 675 345 709 c 0
 353 712 416 715 465 715 c 0
 492 715 516 714 523 711 c 0
 581 684 627 650 631 585 c 0
 631 584 631 583 631 582 c 0
 631 548 592 478 571 475 c 0
 571 475 579 505 579 534 c 0
 579 548 577 561 572 572 c 0
 530 658 483 664 412 666 c 0
 401 666 390 666 380 666 c 0
 297 666 227 651 227 561 c 0xe8
 227 486 313 464 388 454 c 0
 467 444 526 430 598 383 c 24
 647 350 674 321 676 261 c 0
 676 257 676 254 676 250 c 0
 676 102 573 5 459 -70 c 0
 456 -72 454 -73 453 -73 c 0
 453 -73 l 0
 453 -68 616 69 618 169 c 0
EndSplineSet
Validated: 5
EndChar

StartChar: ADLAM_CAPITAL_LETTER_TU
Encoding: 26 125210 28
Width: 1024
VWidth: 0
Flags: HW
HStem: 0 22G<800 837> 659 39<550 660>
VStem: 141 61<85 278> 432 72<115 611> 769 56<364 529>
LayerCount: 2
Back
Fore
SplineSet
141 51 m 0
 141 263 109 417 141 594 c 0
 145 617 324 714 367 715 c 0
 386 715 415 673 449 672 c 0
 463 672 464 690 477 690 c 24
 492 690 497 672 512 670 c 0
 523 668 596 698 645 698 c 0
 710 698 772 675 794 614 c 0
 808 575 826 532 825 477 c 0
 823 343 779 327 721 248 c 0
 672 181 556 108 565 122 c 0
 585 156 765 266 769 430 c 4
 772 543 673 661 611 659 c 4
 585 658 509 646 508 631 c 0
 502 538 497 367 504 199 c 24
 506 163 514 120 530 111 c 0
 627 56 857 113 854 92 c 10
 846 27 l 26
 807 0 l 26
 795 35 l 18
 786 61 624 33 516 33 c 0
 465 33 437 106 432 168 c 0
 427 230 435 401 430 555 c 0
 428 617 376 650 315 657 c 24
 261 663 205 627 205 573 c 0
 204 391 197 285 203 106 c 0
 204 77 303 75 324 0 c 0
 328 -14 292 -35 272 -25 c 0
 220 0 141 14 141 51 c 0
EndSplineSet
Validated: 33
EndChar

StartChar: ADLAM_CAPITAL_LETTER_NHA
Encoding: 27 125211 29
Width: 1024
VWidth: 0
Flags: HW
HStem: 6 47<201 293> 676 21<406 470>
VStem: 91 61<118 231> 152 53<442 553> 404 66<65 80 80 428> 412 49<472 600> 628 46<530 620>
LayerCount: 2
Back
Fore
SplineSet
472 473 m 0xc6
 480 472 487 471 496 471 c 0
 554 471 627 501 628 562 c 0
 628 563 l 0
 628 628 560 662 509 662 c 0
 496 662 484 659 475 655 c 0
 465 650 461 606 461 562 c 0
 461 518 465 474 472 473 c 0xc6
341 83 m 0
 338 46 273 6 210 6 c 0
 143 6 91 63 91 130 c 0xea
 91 131 91 131 91 132 c 8
 92 231 141 284 213 352 c 0
 268 404 291 403 395 455 c 0
 408 462 412 497 412 532 c 0
 412 567 409 600 409 600 c 10
 381 603 l 26
 458 658 l 18
 467 664 470 669 470 672 c 0
 470 675 467 676 461 676 c 0
 427 676 312 639 263 609 c 8
 223 584 206 551 205 505 c 0
 205 504 205 504 205 503 c 0
 205 447 248 425 248 415 c 0
 248 413 246 411 241 410 c 0
 237 409 233 408 229 408 c 0
 192 408 152 457 152 493 c 0xd6
 152 495 l 0
 153 580 311 694 454 697 c 0
 459 697 464 698 469 698 c 0
 560 698 674 679 674 595 c 0
 674 469 473 446 473 446 c 2
 471 444 470 403 470 349 c 0
 470 240 473 80 473 80 c 2
 473 63 502 61 536 61 c 0
 552 61 568 61 584 61 c 0
 608 61 631 60 641 53 c 0
 654 44 658 33 658 19 c 0
 658 4 653 -15 651 -32 c 8
 650 -42 638 -53 629 -47 c 0
 618 -40 613 -3 588 6 c 24
 540 25 507 15 456 22 c 0
 429 26 409 45 407 73 c 0
 404 121 402 179 402 234 c 0
 402 295 404 354 404 390 c 0
 404 414 403 428 402 428 c 0
 401 428 l 2
 401 431 399 433 394 433 c 0
 360 433 222 358 175 279 c 0
 159 253 152 225 152 199 c 0xea
 152 159 169 120 195 83 c 0
 211 60 230 53 249 53 c 0
 289 53 330 86 339 86 c 0
 340 86 341 85 341 84 c 0
 341 83 l 0
EndSplineSet
Validated: 1
EndChar

StartChar: ADLAM_CAPITAL_LETTER_VA
Encoding: 28 125212 30
Width: 1024
VWidth: 0
Flags: HW
HStem: 302 60<374 502> 658 45<417 554>
VStem: 119 76<71 448> 126 81<224 467> 556 77<39 333> 570 59<413 639>
LayerCount: 2
Back
Fore
SplineSet
321 0 m 16xe0
 322 -2 322 -5 322 -7 c 0
 322 -22 297 -28 274 -28 c 0
 267 -28 261 -28 255 -27 c 8
 202 -17 150 -14 131 36 c 0
 122 60 119 96 119 136 c 0xe0
 119 200 126 277 126 348 c 0
 126 351 126 353 126 356 c 0
 126 357 126 359 126 360 c 0
 126 614 436 702 528 703 c 0
 567 703 629 696 629 657 c 26xd4
 633 75 l 26
 633 61 636 51 645 39 c 24
 651 31 675 37 670 29 c 26
 651 0 l 26
 638 -39 l 26
 556 -5 l 26xc8
 550 314 l 18
 550 328 544 333 534 333 c 0
 510 333 463 302 428 302 c 0
 427 302 426 302 425 302 c 8
 380 304 313 297 312 328 c 0
 312 332 312 337 312 342 c 0
 312 376 316 429 328 440 c 0
 328 440 347 365 453 362 c 0
 455 362 455 362 457 362 c 0
 549 362 570 444 570 519 c 0
 570 582 555 639 555 639 c 1
 532 652 506 658 478 658 c 0
 358 658 211 548 207 421 c 0xd4
 205 343 195 283 195 221 c 0
 195 178 200 133 214 80 c 8
 227 30 303 48 321 0 c 16xe0
EndSplineSet
Validated: 1
EndChar

StartChar: ADLAM_CAPITAL_LETTER_KHA
Encoding: 29 125213 31
Width: 1024
VWidth: 0
Flags: HW
HStem: -14 55<240 441> -10 69<364 654> 223 42<382 491> 627 65<376 466>
VStem: 165 61<55 502 567 618> 573 66<378 505>
LayerCount: 2
Back
Fore
SplineSet
639 460 m 0xbc
 639 354 552 306 475 227 c 0
 473 224 470 223 467 223 c 0
 455 223 436 245 420 237 c 0
 391 227 364 181 364 181 c 0
 361 181 357 182 354 184 c 0
 317 206 301 246 301 291 c 0
 301 296 301 302 302 307 c 0
 310 393 459 546 477 528 c 1
 494 489 427 479 399 447 c 4
 362 402 349 265 419 265 c 0
 429 265 444 266 460 267 c 0
 518 270 573 336 573 401 c 0
 573 516 500 627 384 627 c 0
 292 627 233 545 233 473 c 0
 233 365 226 241 226 158 c 0
 226 60 230 41 327 41 c 0xbc
 403 41 511 58 602 58 c 0
 629 58 653 57 676 53 c 0
 676 53 651 -10 628 -10 c 0
 627 -10 l 0x7c
 577 -6 532 -4 490 -4 c 0
 400 -4 320 -11 217 -14 c 0
 216 -14 l 2
 148 -14 165 101 165 170 c 0
 165 381 172 618 172 618 c 10
 152 631 l 26
 229 702 l 1
 228 663 225 624 225 585 c 0
 225 573 228 567 234 567 c 0
 265 567 361 691 443 691 c 0
 566 691 639 582 639 460 c 0xbc
EndSplineSet
Validated: 33
EndChar

StartChar: ADLAM_CAPITAL_LETTER_GBE
Encoding: 30 125214 32
Width: 1024
VWidth: 0
Flags: HW
HStem: -113 66<217 593> 215 88<285 319> 706 77<233 373>
VStem: 147 79<355 646> 386 79<495 609> 569 96<421 681>
LayerCount: 2
Back
Fore
SplineSet
293 303 m 0
 329 303 386 474 386 513 c 0
 386 594 331 706 259 706 c 0
 183 706 220 591 226 515 c 24
 233 429 206 303 293 303 c 0
412 -117 m 0
 290 -105 180 -115 100 -113 c 0
 72 -112 155 8 166 0 c 0
 239 -53 375 -46 414 -47 c 0
 461 -48 602 -60 616 -29 c 0
 661 68 594 218 379 215 c 0
 264 213 145 318 147 457 c 0
 148 544 130 644 115 678 c 0
 105 701 244 782 326 782 c 0
 420 782 465 674 465 602 c 0
 465 471 336 301 336 301 c 0
 359 285 498 293 514 309 c 0
 575 370 572 428 569 528 c 4
 565 669 566 668 549 682 c 0
 549 682 597 752 606 752 c 10
 664 752 l 26
 666 487 l 18
 667 409 546 309 561 295 c 4
 577 280 711 211 713 80 c 0
 715 -14 621 -137 412 -117 c 0
EndSplineSet
Validated: 33
EndChar

StartChar: ADLAM_CAPITAL_LETTER_ZAL
Encoding: 31 125215 33
Width: 1024
VWidth: 0
Flags: HW
HStem: 71 56<308 487> 641 52<311 506>
VStem: 155 55<498 585> 162 65<191 301> 567 51<481 586> 604 66<169 286>
LayerCount: 2
Back
Fore
SplineSet
436 127 m 0xd4
 466 127 599 135 604 213 c 0
 604 216 604 219 604 222 c 0
 604 302 529 333 454 369 c 0
 432 379 376 394 339 394 c 0
 329 394 319 393 313 390 c 0
 255 366 227 313 226 256 c 0
 226 255 226 254 226 253 c 0
 226 159 335 127 436 127 c 0xd4
404 71 m 0
 397 71 390 71 383 71 c 0
 287 71 162 87 162 218 c 0
 162 220 162 222 162 224 c 0xd4
 165 348 289 378 289 403 c 0
 289 425 155 406 155 528 c 0
 155 529 155 531 155 532 c 0
 157 607 294 685 412 692 c 16
 423 693 435 693 447 693 c 0
 532 693 618 670 618 561 c 0
 618 510 560 461 560 461 c 0
 560 461 567 482 567 511 c 0
 567 564 542 641 403 641 c 0
 400 641 396 641 393 641 c 0
 311 641 212 639 210 550 c 0
 210 549 210 549 210 548 c 0xe8
 210 455 349 456 432 433 c 0
 543 403 670 361 670 259 c 0
 670 257 670 256 670 255 c 0
 665 84 460 -67 443 -67 c 0
 442 -67 442 -67 442 -66 c 0
 442 -56 607 61 611 159 c 0
 611 163 610 164 607 164 c 0
 588 164 498 73 404 71 c 0
EndSplineSet
Validated: 1
EndChar

StartChar: ADLAM_CAPITAL_LETTER_KPO
Encoding: 32 125216 34
Width: 1024
VWidth: 0
Flags: HW
HStem: -19 72<464 519> -11 67<234 451> 408 62<316 389> 609 61<338 452>
VStem: 142 84<339 558> 417 72<266 378> 513 4<159 166>
LayerCount: 2
Back
Fore
SplineSet
322 96 m 4x3e
 294 82 413 162 417 297 c 4
 419 348 392 410 347 408 c 4
 300 406 263 277 265 322 c 4
 270 421 311 470 386 470 c 4
 453 470 489 413 488 353 c 4
 487 230 358 113 322 96 c 4x3e
150 305 m 1048
513 -19 m 0xbe
 484 -22 401 -15 329 -11 c 0
 268 -8 177 -42 162 9 c 0
 131 111 156 357 142 585 c 0
 141 596 115 609 126 609 c 3
 151 609 179 648 194 648 c 3
 227 648 219 572 226 572 c 3
 233 572 329 671 413 671 c 3
 454 671 502 656 517 656 c 3
 528 656 515 517 515 509 c 3
 515 486 489 607 384 609 c 0
 200 613 228 496 226 312 c 0
 223 50 190 55 356 55 c 0x7e
 486 55 503 137 513 165 c 4
 519 180 521 140 517 124 c 4
 508 89 462 68 464 60 c 0
 467 46 518 58 519 52 c 0
 521 41 527 -18 513 -19 c 0xbe
EndSplineSet
Validated: 33
EndChar

StartChar: ADLAM_CAPITAL_LETTER_SHA
Encoding: 33 125217 35
Width: 1024
VWidth: 0
Flags: HW
HStem: 173 57<317 524>
VStem: 620 63<351 628>
LayerCount: 2
Back
Fore
SplineSet
625 -30 m 0
 575 -11 438 0 317 -9 c 0
 243 -15 203 67 201 141 c 0
 197 305 224 393 214 555 c 24
 213 579 169 574 172 597 c 0
 173 604 232 646 242 633 c 0
 280 587 265 524 276 447 c 24
 289 355 208 228 436 230 c 4
 647 232 615 331 620 439 c 4
 626 566 616 546 603 590 c 4
 599 604 662 644 674 644 c 4
 684 644 684 549 683 497 c 0
 678 270 578 181 413 173 c 0
 346 170 259 205 261 186 c 2
 255 186 242 88 266 75 c 0
 337 35 654 70 657 58 c 10
 673 9 l 18
 675 1 638 -35 625 -30 c 0
EndSplineSet
Validated: 33
EndChar

StartChar: ADLAM_SMALL_LETTER_ALIF
Encoding: 34 125218 36
Width: 1024
VWidth: 0
Flags: HW
HStem: -8 64<338 476>
VStem: 155 89<253 494> 580 89<168 323>
LayerCount: 2
Back
Fore
SplineSet
369 -8 m 0
 229 -6 157 103 155 259 c 0
 154 346 168 476 157 482 c 10
 99 511 l 18
 82 520 151 547 188 547 c 24
 214 547 245 536 244 511 c 0
 237 187 256 57 430 55 c 0
 524 54 580 145 580 233 c 24
 580 321 524 404 430 410 c 0
 325 417 287 383 291 399 c 0
 296 422 385 486 521 484 c 0
 637 483 669 490 683 474 c 0
 707 445 620 441 617 404 c 24
 613 340 673 332 669 247 c 0
 662 109 498 -10 369 -8 c 0
EndSplineSet
Validated: 33
EndChar

StartChar: ADLAM_SMALL_LETTER_LAAM
Encoding: 36 125220 37
Width: 1024
VWidth: 0
Flags: HW
HStem: -16 80<244 556> 502 74<311 483>
VStem: 127 127<252 413> 557 94<64 446>
LayerCount: 2
Back
Fore
SplineSet
195 217 m 28
 149 237 128 273 127 328 c 0
 125 451 272 579 430 575 c 0
 678 569 653 403 651 260 c 0
 650 179 667 65 651 51 c 10
 569 -18 l 22
 550 -34 462 -16 393 -16 c 24
 291 -16 115 -38 131 -18 c 14
 217 86 l 26
 244 63 l 26
 557 63 l 26
 557 408 l 18
 557 474 428 501 385 502 c 0
 279 504 188 460 254 270 c 4
 264 241 224 204 195 217 c 28
EndSplineSet
Validated: 33
EndChar

StartChar: ADLAM_SMALL_LETTER_MIIM
Encoding: 37 125221 38
Width: 1024
VWidth: 0
Flags: HW
HStem: -14 78<247 525> -10 94<247 437>
VStem: 171 371<222 359>
LayerCount: 2
Back
Fore
SplineSet
532 416 m 0x20
 530 449 497 506 386 514 c 0
 292 521 253 514 261 432 c 0
 268 367 332 347 400 331 c 4
 438 322 483 305 497 311 c 4
 550 334 534 377 532 416 c 0x20
431 594 m 0
 527 590 622 497 624 440 c 0
 628 333 541 360 542 295 c 24
 543 222 636 270 628 129 c 0
 622 18 623 92 609 76 c 26
 525 -14 l 26xa0
 165 -10 l 26
 247 84 l 18x60
 250 88 282 65 417 63 c 0xa0
 468 62 546 23 534 121 c 0
 515 275 171 222 171 408 c 0
 171 514 306 599 431 594 c 0
EndSplineSet
Validated: 33
EndChar

StartChar: ADLAM_SMALL_LETTER_BA
Encoding: 38 125222 39
Width: 624
VWidth: 0
Flags: HW
VStem: 100 68<381 592> 268 59<185 377> 463 52<266 352>
LayerCount: 2
Back
Fore
SplineSet
332 190 m 0
 333 160 463 242 463 279 c 0
 463 341 428 380 383 384 c 0
 362 386 328 372 328 351 c 0
 329 274 330 264 332 190 c 0
171 -40 m 0
 58 0 133 445 100 581 c 0
 96 598 168 614 168 614 c 0
 186 523 167 353 180 252 c 0
 189 182 268 149 270 168 c 0
 277 228 264 323 268 373 c 0
 270 397 356 425 426 423 c 0
 479 421 515 382 515 332 c 0
 515 223 335 151 335 151 c 2
 328 144 342 77 342 77 c 2
 346 40 526 81 549 63 c 0
 573 45 548 0 535 -9 c 0
 516 -22 499 12 476 12 c 0
 430 12 377 -6 333 8 c 24
 299 19 287 12 278 60 c 0
 273 84 283 125 265 127 c 10
 265 127 184 157 184 136 c 3
 184 43 191 10 210 -22 c 24
 218 -36 187 -46 171 -40 c 0
EndSplineSet
Validated: 33
EndChar

StartChar: ADLAM_SMALL_LETTER_DAALI
Encoding: 35 125219 40
Width: 1024
VWidth: 0
Flags: HW
VStem: 418 57<168 439>
LayerCount: 2
Back
Fore
SplineSet
429 1 m 0
 399 2 331 -12 266 -12 c 0
 208 -12 146 -13 124 9 c 0
 124 9 174 74 185 65 c 4
 210 45 402 24 402 38 c 4
 401 118 184 181 154 215 c 0
 132 240 180 319 119 376 c 9
 209 431 l 18
 234 447 215 325 212 275 c 0
 210 235 426 136 426 136 c 0
 412 191 419 244 418 395 c 0
 417 577 411 559 380 581 c 9
 471 625 l 18
 498 638 471 384 475 214 c 0
 477 125 523 64 524 -14 c 0
 524 -37 449 0 429 1 c 0
EndSplineSet
Validated: 33
EndChar

StartChar: ADLAM_SMALL_LETTER_SINNYIIYHE
Encoding: 39 125223 41
Width: 1024
VWidth: 0
Flags: HW
HStem: -11 52<546 620>
VStem: 165 73<95 570> 436 72<87 356> 663 75<107 369>
LayerCount: 2
Back
Fore
SplineSet
340 -6 m 4
 220 -5 166 26 162 324 c 0
 162 330 162 335 162 341 c 0
 162 399 165 441 165 491 c 0
 165 515 164 541 162 571 c 8
 161 581 132 583 141 588 c 26
 238 645 l 26
 236 152 l 26
 236 91 270 59 360 57 c 0
 361 57 364 57 365 57 c 0
 427 57 439 85 439 125 c 0
 439 151 434 181 434 214 c 0
 434 218 434 223 434 227 c 0
 436 277 436 356 436 356 c 10
 420 371 l 26
 516 424 l 26
 510 391 l 18
 509 385 508 360 508 329 c 0
 508 291 509 242 510 203 c 0
 512 132 525 41 595 41 c 0
 596 41 597 41 598 41 c 8
 668 44 658 140 662 209 c 0
 663 225 663 242 663 260 c 0
 663 314 659 369 659 369 c 10
 645 381 l 26
 743 430 l 26
 735 399 l 18
 732 390 732 379 732 366 c 0
 732 333 738 290 738 247 c 0
 738 239 737 231 737 223 c 0
 736 210 736 198 736 186 c 0
 736 178 736 171 736 163 c 0
 736 117 711 105 679 66 c 8
 642 21 603 -11 545 -11 c 24
 498 -11 458 51 444 51 c 0
 437 51 404 -6 342 -6 c 4
 341 -6 341 -6 340 -6 c 4
EndSplineSet
Validated: 1
EndChar

StartChar: ADLAM_SMALL_LETTER_PE
Encoding: 40 125224 42
Width: 1024
VWidth: 0
Flags: HW
HStem: -9 94<264 328> -8 65<343 568> 501 92<325 445>
VStem: 175 77<90 479> 529 90<312 419>
LayerCount: 2
Back
Fore
SplineSet
529 340 m 0xb8
 529 341 529 341 529 342 c 0
 529 433 453 500 364 501 c 0
 363 501 361 501 360 501 c 0
 266 501 253 471 253 411 c 0
 253 387 255 358 255 324 c 0
 255 313 255 302 254 290 c 0
 253 267 252 241 252 216 c 0
 252 150 258 86 285 86 c 0
 287 86 289 86 292 87 c 0
 309 93 528 217 529 340 c 0xb8
385 -8 m 0x78
 381 -8 376 -8 372 -8 c 0
 338 -8 309 -9 285 -9 c 0xb8
 187 -9 173 1 173 94 c 0
 173 132 175 184 175 255 c 0
 175 265 175 275 175 285 c 0
 175 297 175 309 175 320 c 0
 175 543 196 557 240 557 c 0
 246 557 252 556 259 556 c 0
 271 556 284 557 299 561 c 0
 349 575 342 593 423 593 c 0
 425 593 428 593 430 593 c 0
 548 592 620 511 620 410 c 0
 620 407 620 404 620 401 c 0
 611 190 340 117 340 70 c 0
 340 67 341 65 343 62 c 0
 346 58 358 57 375 57 c 0
 432 57 548 74 601 74 c 0
 618 74 628 72 628 67 c 0
 628 66 628 67 628 66 c 10
 579 -39 l 26
 542 -6 l 18
 520 13 446 -8 385 -8 c 0x78
EndSplineSet
Validated: 33
EndChar

StartChar: ADLAM_SMALL_LETTER_BHE
Encoding: 41 125225 43
Width: 1024
VWidth: 0
Flags: HW
HStem: 10 66<222 541> 494 72<254 499>
VStem: 549 74<87 292>
LayerCount: 2
Back
Fore
SplineSet
403 10 m 24
 297 4 131 -24 131 39 c 0
 131 74 182 127 197 125 c 0
 238 119 141 75 424 76 c 0
 582 76 543 101 549 190 c 0
 552 239 550 271 532 290 c 4
 514 309 403 181 299 184 c 0
 205 187 118 263 119 348 c 0
 120 449 193 497 272 557 c 0
 307 584 385 559 455 565 c 0
 580 575 651 640 653 618 c 0
 657 569 497 492 352 494 c 0
 286 495 205 487 211 399 c 0
 217 317 279 260 375 266 c 0
 442 270 481 300 528 348 c 0
 564 385 530 448 575 473 c 0
 661 520 621 368 623 295 c 24
 626 200 646 130 588 55 c 24
 542 -4 478 14 403 10 c 24
EndSplineSet
Validated: 33
EndChar

StartChar: ADLAM_SMALL_LETTER_RA
Encoding: 42 125226 44
Width: 1024
VWidth: 0
Flags: HW
HStem: -10 80<372 671> 150 84<401 532>
LayerCount: 2
Back
Fore
SplineSet
487 -10 m 0
 217 -10 235 0 233 297 c 0
 232 433 274 498 205 528 c 25
 511 751 111 246 503 233 c 4
 589 230 636 292 642 403 c 0
 648 505 622 528 622 528 c 10
 744 618 l 18
 757 628 727 524 734 463 c 0
 740 406 605 150 458 150 c 0
 382 150 327 190 318 170 c 0
 300 127 346 74 487 70 c 0
 588 67 719 117 748 84 c 0
 759 72 704 -26 694 -14 c 0
 664 22 567 -10 487 -10 c 0
EndSplineSet
Validated: 33
EndChar

StartChar: ADLAM_SMALL_LETTER_E
Encoding: 43 125227 45
Width: 1024
VWidth: 0
Flags: HW
HStem: -29 82<561 618> 532 80<333 539>
VStem: 154 86<115 414> 633 72<69 196>
LayerCount: 2
Back
Fore
SplineSet
516 53 m 0
 636 50 632 85 633 147 c 0
 634 201 575 231 520 231 c 24
 460 231 391 180 389 150 c 0
 385 72 459 54 516 53 c 0
307 94 m 0
 327 92 316 196 432 266 c 0
 507 312 592 399 590 430 c 0
 585 502 522 532 438 532 c 0
 276 532 244 490 240 322 c 0
 238 222 207 104 307 94 c 0
268 -29 m 0
 172 -29 153 139 154 256 c 0
 156 520 281 612 467 612 c 0
 562 612 670 568 670 479 c 0
 670 405 582 327 582 318 c 0
 582 300 705 317 705 137 c 0
 705 62 705 -29 631 -29 c 0
 606 -29 616 -10 514 0 c 0
 437 8 354 37 317 35 c 0
 286 33 300 -29 268 -29 c 0
EndSplineSet
Validated: 33
EndChar

StartChar: ADLAM_SMALL_LETTER_FA
Encoding: 44 125228 46
Width: 1024
VWidth: 0
Flags: HW
HStem: 379 78<413 523> 546 71<389 568>
VStem: 227 86<161 338 366 444> 602 74<165 294>
LayerCount: 2
Back
Fore
SplineSet
422 -72 m 6
 389 -112 599 75 602 203 c 4
 604 292 543 376 455 379 c 4
 340 382 312 326 313 252 c 4
 315 96 401 156 401 143 c 4
 401 128 326 74 297 76 c 4
 233 80 227 160 227 305 c 0
 227 519 342 612 496 616 c 0
 572 618 664 603 678 549 c 0
 680 541 654 449 606 449 c 0
 594 449 629 548 473 546 c 0
 396 545 307 567 307 438 c 0
 307 407 276 354 307 358 c 24
 392 369 366 455 500 457 c 0
 600 459 677 318 676 242 c 4
 674 95 406 -97 422 -72 c 6
EndSplineSet
Validated: 37
EndChar

StartChar: ADLAM_DIGIT_ZERO
Encoding: 80 125264 47
Width: 800
VWidth: 0
Flags: HW
HStem: -98 98<245 341> 602 76<287 435>
VStem: 94 76<110 429> 577 96<187 409>
LayerCount: 2
Back
Fore
SplineSet
258 -98 m 0
 119 -96 96 75 94 221 c 0
 94 226 94 230 94 235 c 0
 94 533 221 676 393 678 c 0
 394 678 395 678 396 678 c 0
 568 678 669 523 674 330 c 0
 674 326 674 322 674 318 c 0
 674 102 505 -92 434 -92 c 0
 428 -92 426 -92 426 -91 c 0
 426 -84 577 -40 577 210 c 0
 577 502 478 602 340 602 c 0
 339 602 339 602 338 602 c 0
 201 601 170 558 170 309 c 0
 170 171 185 0 311 0 c 0
 455 0 473 332 473 332 c 0
 473 332 l 0
 479 332 484 308 484 271 c 0
 484 152 438 -98 260 -98 c 0
 259 -98 259 -98 258 -98 c 0
EndSplineSet
Validated: 1
EndChar

StartChar: ADLAM_DIGIT_ONE
Encoding: 81 125265 48
Width: 442
VWidth: 0
Flags: HW
VStem: 186 89
LayerCount: 2
Back
Fore
SplineSet
273 -49 m 0
 273 -74 222 -101 222 -101 c 26
 197 -76 l 18
 197 -76 186 331 186 544 c 0
 186 574 186 601 187 622 c 0
 188 642 259 680 259 680 c 26
 275 652 l 18
 275 652 272 333 272 112 c 0
 272 46 272 -12 273 -49 c 0
EndSplineSet
Validated: 1
EndChar

StartChar: ADLAM_DIGIT_TWO
Encoding: 82 125266 49
Width: 618
VWidth: 0
Flags: HW
HStem: 440 59<309 359>
VStem: 283 70<574 697> 380 66<-30 394>
LayerCount: 2
Back
Fore
SplineSet
379 -38 m 0
 377 -9 376 21 376 52 c 0
 376 127 380 205 380 270 c 0
 380 367 371 439 324 440 c 0
 323 440 323 440 322 440 c 0
 240 440 160 323 136 323 c 0
 135 323 134 323 133 324 c 0
 128 327 126 331 126 335 c 0
 126 363 215 419 245 473 c 0
 275 527 276 597 283 671 c 0
 284 684 320 713 341 713 c 0
 342 713 343 713 344 713 c 0
 350 712 353 703 353 690 c 0
 353 667 345 630 339 603 c 0
 331 565 308 530 308 512 c 0
 308 509 308 507 309 505 c 0
 311 501 317 499 324 499 c 0
 341 499 368 508 384 508 c 0
 385 508 386 508 387 508 c 0
 443 503 455 457 455 397 c 0
 455 347 446 288 446 237 c 0
 446 151 450 124 451 16 c 0
 451 -13 437 -23 412 -39 c 16
 406 -43 397 -46 390 -46 c 0
 384 -46 379 -44 379 -38 c 0
EndSplineSet
Validated: 1
EndChar

StartChar: ADLAM_DIGIT_THREE
Encoding: 83 125267 50
Width: 760
VWidth: 0
Flags: HW
HStem: -104 93<225 545> 278 66<304 384>
VStem: 90 90<24 91> 187 75<391 668> 504 118<479 688>
LayerCount: 2
Back
Fore
SplineSet
358 -102 m 0
 241 -101 90 -86 90 31 c 0
 90 109 211 204 304 242 c 0
 413 286 479 282 520 408 c 0
 520 409 521 409 521 410 c 0
 521 411 520 411 520 411 c 0
 510 411 403 278 318 278 c 0
 311 278 305 279 299 281 c 0
 233 299 187 382 187 469 c 0
 187 471 187 473 187 475 c 0
 189 577 190 711 252 711 c 0
 254 711 257 711 260 711 c 0
 272 709 276 693 276 670 c 0
 276 627 263 557 263 493 c 0
 263 415 283 346 369 344 c 0
 370 344 370 344 371 344 c 0
 444 344 504 425 504 549 c 0
 504 551 504 553 504 555 c 0
 504 561 504 568 504 575 c 0
 504 634 509 705 561 705 c 0
 562 705 564 705 565 705 c 0
 609 702 622 663 622 617 c 0
 622 587 616 553 610 524 c 8
 587 416 565 341 477 276 c 0
 368 196 218 212 182 78 c 16
 180 72 180 66 180 61 c 0
 180 -9 318 -4 403 -10 c 0
 418 -11 434 -11 451 -11 c 0
 468 -11 484 -11 500 -11 c 0
 547 -11 588 -13 588 -30 c 0
 588 -32 587 -34 586 -37 c 0
 557 -95 500 -104 437 -104 c 0
 411 -104 384 -102 358 -102 c 0
EndSplineSet
Validated: 1
EndChar

StartChar: ADLAM_DIGIT_FOUR
Encoding: 84 125268 51
Width: 712
VWidth: 0
Flags: HW
HStem: 0 66<182 511>
VStem: 90 68<90 151>
LayerCount: 2
Back
Fore
SplineSet
90 83 m 0
 89 195 293 312 296 325 c 0
 336 497 280 703 301 709 c 10
 386 732 l 26
 372 356 l 18
 370 302 559 516 550 481 c 0
 521 370 359 301 341 292 c 0
 274 258 158 228 158 138 c 0
 158 44 302 70 389 66 c 0
 469 62 609 88 594 63 c 10
 537 -31 l 26
 199 -8 l 30
 200 0 l 26
 147 1 90 30 90 83 c 0
EndSplineSet
Validated: 33
EndChar

StartChar: ADLAM_DIGIT_FIVE
Encoding: 85 125269 52
Width: 742
VWidth: 0
Flags: HWO
HStem: -74 74<253 402>
VStem: 140 79<-30 91>
LayerCount: 2
Back
Fore
SplineSet
303 487 m 0
 187 339 225 346 321 286 c 0
 368 257 416 246 462 282 c 0
 527 332 541 350 467 454 c 0
 374 586 370 572 303 487 c 0
405 688 m 10
 405 688 612 449 615 378 c 0
 617 336 404 206 404 206 c 26
 404 206 406 177 389 168 c 0
 348 148 219 115 219 68 c 0
 219 17 307 0 373 0 c 0
 537 0 586 169 600 207 c 0
 608 229 605 262 622 264 c 10
 666 269 l 26
 660 202 l 26
 660 202 553 37 443 -29 c 0
 394 -58 366 -74 308 -74 c 0
 234 -74 140 -67 140 7 c 24
 140 103 309 139 309 186 c 0
 309 252 105 251 105 309 c 0
 105 332 195 421 249 498 c 0
 296 566 383 720 405 688 c 10
EndSplineSet
EndChar

StartChar: ADLAM_DIGIT_SIX
Encoding: 86 125270 53
Width: 696
VWidth: 0
Flags: HW
HStem: 0 22G<174 227> 404 1<221 321>
VStem: 165 76<113 378> 530 70<161 320>
LayerCount: 2
Back
Fore
SplineSet
386 404 m 0
 208 404 240 346 240 203 c 0
 240 13 269 67 267 35 c 0
 265 8 246 0 208 0 c 0
 140 0 161 217 165 355 c 0
 172 637 138 635 140 655 c 0
 142 680 184 701 215 701 c 0
 295 701 198 498 246 498 c 0
 293 498 450 580 492 651 c 0
 508 678 530 705 552 705 c 0
 570 705 583 680 573 666 c 24
 530 604 497 571 432 531 c 24
 366 491 310 508 247 465 c 24
 228 452 221 407 245 406 c 0
 322 404 364 460 446 460 c 0
 527 460 600 418 600 259 c 0
 601 49 313 -128 288 -101 c 0
 273 -84 531 -14 530 223 c 0
 530 314 476 404 386 404 c 0
EndSplineSet
Validated: 33
EndChar

StartChar: ADLAM_DIGIT_SEVEN
Encoding: 87 125271 54
Width: 874
VWidth: 0
Flags: HW
HStem: 236 88<352 466>
LayerCount: 2
Back
Fore
SplineSet
353 640 m 24
 283 648 185 613 202 544 c 24
 233 423 307 328 433 328 c 0
 508 328 592 416 570 500 c 24
 545 596 451 629 353 640 c 24
391 240 m 0
 340 238 195 74 137 18 c 0
 112 -6 142 -54 111 -72 c 24
 91 -84 53 -48 67 -29 c 24
 159 96 343 218 346 257 c 0
 356 385 116 366 123 495 c 24
 130 622 246 693 373 703 c 24
 498 713 645 666 644 541 c 0
 643 367 467 335 468 298 c 0
 470 243 665 179 721 57 c 24
 749 -2 709 -67 650 -96 c 24
 610 -115 669 -18 641 18 c 24
 562 119 519 245 391 240 c 0
EndSplineSet
Validated: 33
EndChar

StartChar: ADLAM_DIGIT_EIGHT
Encoding: 88 125272 55
Width: 798
VWidth: 0
Flags: HW
HStem: -48 77<263 469>
VStem: 125 74<83 175> 541 74<78 172>
LayerCount: 2
Back
Fore
SplineSet
397 39 m 0
 494 40 547 48 547 114 c 0
 547 193 392 359 367 359 c 0
 354 359 199 222 199 151 c 0
 199 46 311 38 397 39 c 0
352 -48 m 0
 245 -50 127 -13 125 93 c 24
 122 236 319 331 344 384 c 0
 366 432 84 585 143 646 c 0
 232 738 274 455 401 445 c 0
 479 439 662 736 703 687 c 0
 747 634 434 427 434 415 c 0
 436 365 622 281 620 174 c 0
 618 45 493 -46 352 -48 c 0
EndSplineSet
Validated: 33
EndChar

StartChar: ADLAM_DIGIT_NINE
Encoding: 89 125273 56
Width: 714
VWidth: 0
Flags: HW
HStem: 663 76<293 451>
VStem: 238 1<110 314> 536 78<481 589>
LayerCount: 2
Back
Fore
SplineSet
536 519 m 0
 536 609 449 661 359 663 c 0
 320 664 225 649 191 587 c 24
 167 544 204 524 218 480 c 0
 234 432 218 356 290 355 c 0
 402 353 536 409 536 519 c 0
247 -69 m 0
 194 -69 149 -25 148 32 c 0
 146 263 238 284 238 314 c 0
 238 340 118 395 118 534 c 0
 118 628 251 739 417 738 c 0
 525 737 611 653 613 546 c 0
 615 448 470 359 321 298 c 0
 255 271 239 180 239 110 c 0
 239 -70 329 27 329 -42 c 0
 329 -64 281 -69 247 -69 c 0
EndSplineSet
Validated: 33
EndChar

StartChar: ADLAM_INITIAL_EXCLAMATION_MARK
Encoding: 94 125278 57
Width: 746
VWidth: 0
Flags: HW
HStem: 406 61<242 320> 600 44<111 207>
VStem: 106 62<125 307> 469 72<-25 350>
LayerCount: 2
Back
Fore
SplineSet
234 0 m 0
 185 -39 104 86 106 172 c 0
 112 469 324 467 324 467 c 1
 338 649 317 567 98 600 c 0
 70 604 101 640 129 644 c 0
 226 658 283 647 383 649 c 0
 619 653 647 720 647 694 c 0
 645 559 403 650 395 551 c 0
 381 378 543 485 541 213 c 0
 540 125 537 -96 580 -137 c 0
 608 -163 481 -131 481 -131 c 18
 455 -129 485 57 469 176 c 24
 458 257 491 370 410 377 c 0
 363 381 457 31 336 33 c 0
 297 34 417 412 268 406 c 0
 221 404 162 334 168 203 c 0
 172 120 260 21 234 0 c 0
EndSplineSet
Validated: 33
EndChar

StartChar: ADLAM_INITIAL_QUESTION_MARK
Encoding: 95 125279 58
Width: 756
VWidth: 0
Flags: HW
HStem: 58 65<230 347> 428 85<340 465> 649 62<319 529>
VStem: 116 59<176 322> 180 62<540 597> 513 72<-13 382> 576 52<525 609>
LayerCount: 2
Back
Fore
SplineSet
261 66 m 0xfc
 175 66 116 148 116 227 c 0
 116 399 314 513 448 513 c 0
 450 513 454 513 456 513 c 0
 471 513 492 510 511 510 c 0
 545 510 576 518 576 561 c 0
 576 628 490 648 419 649 c 0
 416 649 413 649 410 649 c 0
 252 649 246 598 243 571 c 0
 240 547 211 532 203 532 c 0
 202 532 l 0
 192 536 180 556 180 569 c 0
 180 573 181 578 183 580 c 0
 261 658 309 712 429 712 c 0
 524 712 627 648 629 586 c 0
 629 585 629 584 629 584 c 0xfa
 629 511 542 481 542 465 c 0
 542 438 581 475 585 211 c 0
 585 208 585 204 585 201 c 0
 585 155 582 104 582 62 c 0
 582 20 585 -15 597 -33 c 10
 620 -68 l 26
 550 -113 l 26
 521 -86 l 18
 513 -78 513 95 513 225 c 0
 513 242 514 262 514 279 c 0
 514 355 502 423 380 428 c 0
 375 428 370 428 365 428 c 0
 247 428 175 370 175 276 c 0
 175 275 175 275 175 274 c 0
 176 142 234 127 353 123 c 0
 360 123 363 118 363 113 c 0
 363 101 349 80 335 68 c 0
 327 61 319 58 310 58 c 0
 294 58 276 66 261 66 c 0xfc
EndSplineSet
Validated: 1
EndChar

StartChar: NameMe.45
Encoding: 45 125229 59
Width: 886
VWidth: 0
Flags: HW
HStem: -35 80<647 799>
VStem: 909 96<181 465>
LayerCount: 2
Back
Fore
SplineSet
400 -29 m 0
 246 -28 170 106 167 258 c 0
 165 354 162 478 139 504 c 0
 123 522 180 561 228 561 c 0
 269 561 158 36 463 45 c 0
 624 50 621 69 629 305 c 0
 635 477 605 459 576 477 c 0
 562 486 705 583 719 555 c 0
 719 555 718 420.004424692 718 307 c 0
 718 76 581 -30 400 -29 c 0
EndSplineSet
Validated: 524321
EndChar

StartChar: ADLAM_SMALL_LETTER_O
Encoding: 46 125230 60
Width: 1024
VWidth: 0
Flags: HW
HStem: 152 81<302 485> 618 70<364 549>
VStem: 131 92<311 459>
LayerCount: 2
Back
Fore
SplineSet
539 240 m 26
 535 172 l 26
 496 104 l 26
 477 152 l 18
 470 170 433 152 342 152 c 0
 205 152 129 254 131 350 c 0
 135 539 292 683 481 688 c 0
 646 692 779 555 778 393 c 0
 776 156 494 23 416 -35 c 0
 370 -70 699 154 688 369 c 0
 681 503 587 619 453 618 c 0
 339 617 225 574 223 412 c 0
 222 314 269 230 406 232 c 0
 458 233 542 292 539 240 c 26
EndSplineSet
Validated: 37
EndChar

StartChar: ADLAM_SMALL_LETTER_DHA
Encoding: 47 125231 61
Width: 1024
VWidth: 0
Flags: HW
HStem: -10 84<442 622> 539 70<413 611>
VStem: 193 78<233 388> 737 84<132 416>
LayerCount: 2
Back
Fore
SplineSet
563 74 m 4
 704 75 739 106 737 299 c 4
 736 429 675 533 504 539 c 4
 361 544 268 488 270 326 c 4
 272 172 412 73 563 74 c 4
543 -10 m 4
 336 -5 193 100 193 276 c 4
 193 456 363 608 512 608 c 4
 616 608 684 559 727 563 c 4
 761 566 710 651 731 651 c 14
 823 653 l 30
 821 137 l 22
 821 104 611 -12 543 -10 c 4
EndSplineSet
Validated: 33
EndChar

StartChar: ADLAM_SMALL_LETTER_YHE
Encoding: 48 125232 62
Width: 1024
VWidth: 0
Flags: HW
VStem: 138 78<173 388>
LayerCount: 2
Back
Fore
SplineSet
337 -18 m 4
 217 -30 135 162 138 333 c 4
 140 421 265 490 384 540 c 0
 409 550 266 572 255 607 c 0
 253 612 327 678 337 671 c 0
 523 532 711 546 695 542 c 0
 685 540 664 493 634 476 c 0
 595 453 550 484 472 480 c 0
 357 474 212 567 216 265 c 0
 218 116 304 74 480 72 c 0
 559 71 654 106 689 75 c 0
 704 62 637 -51 617 -28 c 0
 595 -4 576 7 337 -18 c 4
EndSplineSet
Validated: 33
EndChar

StartChar: ADLAM_SMALL_LETTER_WAW
Encoding: 49 125233 63
Width: 1024
VWidth: 0
Flags: HW
HStem: 196 92<350 454> 501 80<509 663>
VStem: 181 100<63 186> 607 98<28 381>
LayerCount: 2
Back
Fore
SplineSet
325 -71 m 0
 221 -70 181 -2 181 153 c 0
 181 396 437 583 634 581 c 0
 672 581 718 587 726 550 c 1
 708 525 706 379 706 269 c 0
 706 163 696 44 749 0 c 1
 749 -30 730 -59 701 -58 c 0
 609 -55 606 101 607 228 c 4
 609 457 727 500 620 501 c 0
 442 503 280 468 280 275 c 0
 280 216 371 288 429 288 c 0
 483 288 546 277 546 232 c 1
 542 220 515 165 495 163 c 1
 448 169 424 195 378 196 c 1
 299 197 279 198 282 120 c 0
 286 27 411 -15 411 -15 c 0
 421 -54 372 -72 325 -71 c 0
EndSplineSet
Validated: 33
EndChar

StartChar: ADLAM_ALIF_LENGTHENER
Encoding: 68 125252 64
Width: 1136
VWidth: 0
Flags: HW
HStem: 682 43<637 655>
AnchorPoint: "MyAnchor1" 524 651 mark 0
LayerCount: 2
Back
Fore
SplineSet
559 477 m 0
 528 489 540 613 514 629 c 0
 472 655 313 606 231 702 c 0
 208 729 310 708 375 713 c 0
 538 725 535 663 551 663 c 0
 567 663 570 727 623 725 c 0
 655 724 710 694 692 678 c 0
 675 663 587 663 575 582 c 0
 569 541 584 468 559 477 c 0
EndSplineSet
Validated: 33
EndChar

StartChar: ADLAM_SMALL_LETTER_SHA
Encoding: 67 125251 65
Width: 1024
VWidth: 0
Flags: HW
HStem: -92 106<348 684> 133 80<408 516>
VStem: 164 125<264 526> 444 139<552 629> 736 99<453 592>
LayerCount: 2
Back
Fore
SplineSet
702 -131 m 0
 681 -103 662 -82 461 -92 c 0
 115 -108 160 20 164 231 c 4
 167 376 206 571 150 602 c 0
 132 612 275 707 276 684 c 2
 304 702 291 559 289 479 c 24
 288 416 251 349 268 287 c 0
 274 264 289 270 337 258 c 0
 353 254 488 418 492 492 c 0
 495 549 444 548 444 590 c 0
 444 633 544 685 547 684 c 0
 577 678 585 630 584 588 c 0
 580 437 372 270 393 248 c 0
 418 220 438 213 489 213 c 0
 625 213 735 397 736 485 c 0
 737 582 731 568 709 600 c 0
 701 611 827 721 856 707 c 0
 874 698 836 604 836 528 c 0
 836 417 616 133 426 133 c 0
 328 133 271 195 262 174 c 0
 233 108 262 13 520 14 c 0
 637 14 818 31 821 12 c 0
 823 0 722 -158 702 -131 c 0
EndSplineSet
Validated: 33
EndChar

StartChar: ADLAM_SMALL_LETTER_NUN
Encoding: 50 125234 66
Width: 1024
VWidth: 0
Flags: HW
HStem: 558 78<376 557>
VStem: 167 82<99 186> 219 73<402 514> 541 79<115 288>
LayerCount: 2
Back
Fore
SplineSet
599 34 m 0x90
 519 36 541 106 541 161 c 4
 541 213 541 239 546 291 c 25
 632 353 l 25
 627 290 621 253 620 189 c 4
 619 110 652 106 685 83 c 1
 660 46 638 33 599 34 c 0x90
306 -26 m 24
 236 6 167 44 167 101 c 0xd0
 167 291 462 425 523 423 c 0
 563 422 640 420 620 454 c 24
 578 523 573 560 441 558 c 0
 367 557 269 584 292 443 c 0
 296 421 304 396 255 398 c 0
 225 399 217 439 219 464 c 0xb0
 225 536 350 632 470 636 c 24
 574 640 684 574 684 480 c 0
 684 435 573 364 536 360 c 0
 322 336 251 282 249 167 c 0xd0
 247 71 353 48 355 11 c 1
 362 -12 328 -36 306 -26 c 24
EndSplineSet
Validated: 33
EndChar

StartChar: ADLAM_SMALL_LETTER_KAF
Encoding: 51 125235 67
Width: 1024
VWidth: 0
Flags: HW
HStem: 546 74<243 425>
LayerCount: 2
Back
Fore
SplineSet
421 -11 m 0
 399 -22 95 -20 97 -17 c 10
 163 69 l 26
 163 69 362 -6 425 75 c 0
 448 104 417 280 417 280 c 18
 413 370 113 301 93 327 c 0
 87 335 153 407 171 409 c 1
 202 409 430 364 429 407 c 10
 425 546 l 2
 153 548 l 26
 218 628 l 18
 227 639 381 618 484 620 c 0
 545 621 708 695 693 636 c 0
 671 546 532 626 505 550 c 0
 487 499 474 455 501 390 c 0
 515 355 711 386 751 505 c 0
 775 577 728 714 765 714 c 10
 853 714 l 26
 853 714 829 311 833 54 c 24
 833 25 865 -11 865 -11 c 26
 865 -11 818 -50 783 -48 c 24
 749 -46 710 0 710 0 c 26
 710 0 740 10 742 26 c 24
 761 164 783 369 763 404 c 4
 745 434 514 312 511 255 c 4
 503 79 439 -2 421 -11 c 0
EndSplineSet
Validated: 33
EndChar

StartChar: ADLAM_SMALL_LETTER_YA
Encoding: 52 125236 68
Width: 1024
VWidth: 0
Flags: HW
HStem: -13 63<287 508> 302 84<304 513> 566 72<336 516>
VStem: 577 80<107 242>
LayerCount: 2
Back
Fore
SplineSet
351 -13 m 0
 255 -12 142 -38 108 0 c 0
 98 11 139 86 151 110 c 0
 167 143 280 46 413 50 c 4
 536 54 580 42 577 153 c 0
 574 294 479 297 398 302 c 0
 343 306 211 297 257 316 c 2
 185 323 317 382 421 386 c 0
 509 389 555 413 552 474 c 0
 547 560 471 567 402 566 c 4
 287 564 269 532 208 462 c 0
 191 443 150 499 169 513 c 24
 264 584 327 634 445 638 c 24
 524 640 613 605 613 527 c 0
 613 398 538 390 536 359 c 4
 534 330 657 366 656 191 c 4
 655 89 576 -15 351 -13 c 0
EndSplineSet
Validated: 33
EndChar

StartChar: ADLAM_SMALL_LETTER_U
Encoding: 53 125237 69
Width: 1024
VWidth: 0
Flags: HW
HStem: 0 95<379 469> 529 70<344 466>
VStem: 208 72<186 415> 519 70<226 423> 689 68<397 511>
LayerCount: 2
Back
Fore
SplineSet
548 52 m 0
 638 109 687 117 689 316 c 0
 690 406 720 513 681 517 c 0
 656 520 592 424 589 323 c 0
 586 193 478 90 474 74 c 0
 466 42 532 42 548 52 c 0
519 314 m 24
 518 408 505 525 411 529 c 24
 316 533 282 420 280 325 c 0
 278 222 310 100 415 95 c 0
 499 91 520 220 519 314 c 24
478 0 m 0
 358 0 207 107 208 259 c 0
 209 449 297 599 417 599 c 0
 468 599 654 495 609 495 c 0
 601 495 756 650 757 624 c 0
 766 350 808 0 478 0 c 0
EndSplineSet
Validated: 37
EndChar

StartChar: ADLAM_SMALL_LETTER_JIIM
Encoding: 54 125238 70
Width: 1337
VWidth: 0
Flags: HW
HStem: 535 59<340 450> 555 49<570 654>
VStem: 248 61<220 485> 510 55<299 467> 664 60<64 509>
LayerCount: 2
Back
Fore
SplineSet
248 362 m 0xb8
 248 527 337 598 420 594 c 0xb8
 453 593 476 571 512 553 c 25
 561 576 601 604 637 604 c 0
 765 604 724 419 724 293 c 4
 724 179 719 34 741 0 c 0
 751 -15 711 -39 696 -39 c 0
 653 -39 662 155 664 279 c 0
 668 504 680 557 602 555 c 0x78
 573 554 560 548 532 538 c 25
 547 476 565 434 565 369 c 0
 565 323 514 242 459 172 c 24
 451 162 426 190 436 199 c 0
 487 242 509 252 510 377 c 0
 511 455 465 536 387 535 c 0
 286 534 312 495 309 406 c 0
 307 349 310 284 325 230 c 24
 333 199 378 191 377 170 c 0
 377 158 342 165 319 166 c 0
 297 167 248 169 248 362 c 0xb8
EndSplineSet
Validated: 33
EndChar

StartChar: ADLAM_SMALL_LETTER_CHI
Encoding: 55 125239 71
Width: 1024
VWidth: 0
Flags: HW
HStem: -18 94<373 663> 430 78<480 572>
VStem: 242 88<114 235> 698 70<128 262>
LayerCount: 2
Back
Fore
SplineSet
510 76 m 0
 681 76 698 52 698 152 c 0
 698 244 633 430 500 430 c 0
 458 430 329 314 330 219 c 0
 332 41 424 76 510 76 c 0
489 -18 m 0
 378 -16 242 40 242 158 c 0
 242 299 457 431 457 449 c 0
 457 527 270 481 270 522 c 0
 270 541 309 588 348 586 c 24
 435 582 470 508 557 508 c 4
 636 508 749 661 788 616 c 0
 819 581 635 504 635 489 c 0
 634 445 768 400 768 254 c 0
 768 126 711 39 621 -39 c 0
 608 -50 618 -3 602 0 c 24
 558 7 533 -19 489 -18 c 0
EndSplineSet
Validated: 33
EndChar

StartChar: ADLAM_SMALL_LETTER_HA
Encoding: 56 125240 72
Width: 1024
VWidth: 0
Flags: HW
HStem: -16 51<274 538>
VStem: 623 84<137 365>
LayerCount: 2
Back
Fore
SplineSet
707 244 m 0
 707 59 551 -24 387 -16 c 0
 291 -11 212 0 141 0 c 0
 127 0 189 84 238 80 c 0
 287 76 225 39 395 35 c 4
 623 30 619 51 623 233 c 4
 626 361 579 470 399 475 c 0
 295 478 299 452 252 453 c 0
 220 454 242 505 254 535 c 24
 268 571 278 609 317 610 c 24
 347 611 314 556 336 537 c 0
 352 523 563 552 645 453 c 0
 715 369 707 336 707 244 c 0
EndSplineSet
Validated: 33
EndChar

StartChar: ADLAM_VOWEL_LENGTHENER
Encoding: 69 125253 73
Width: 1024
VWidth: 0
Flags: HW
HStem: 534 75<265 504> 674 59<301 445>
VStem: 194 71<574 652>
LayerCount: 2
Back
Fore
SplineSet
259 534 m 0
 225 534 194 557 194 591 c 0
 194 681 318 733 410 733 c 0
 430 733 446 723 446 699 c 0
 446 681 431 650 419 653 c 2
 415 646 418 672 328 674 c 0
 299 675 264 664 264 636 c 0
 264 589 325 608 369 608 c 0
 423 608 454 607 508 607 c 24
 532 607 569 618 568 605 c 10
 555 546 l 30
 537 500 l 26
 508 546 l 22
 502 556 357 534 259 534 c 0
EndSplineSet
Validated: 33
EndChar

StartChar: ADLAM_GEMINATION_MARK
Encoding: 70 125254 74
Width: 1024
VWidth: 0
Flags: HW
HStem: 656 79<174 549>
LayerCount: 2
Back
Fore
SplineSet
106 668 m 26
 106 668 134 729 156 734 c 0
 256 758 307 727 420 735 c 4
 433 736 606 750 606 750 c 26
 606 750 570 681 528 666 c 24
 467 642 447 660 360 656 c 0
 282 652 106 668 106 668 c 26
EndSplineSet
Validated: 33
EndChar

StartChar: ADLAM_HAMZA
Encoding: 71 125255 75
Width: 1024
VWidth: 0
Flags: HW
HStem: 558 51<330 384> 715 38<341 391>
VStem: 263 53<623 688> 465 51<696 781>
LayerCount: 2
Back
Fore
SplineSet
334 558 m 0
 292 558 263 596 263 636 c 0
 263 697 364 753 383 753 c 0
 384 753 386 753 386 752 c 2
 387 753 387 752 388 752 c 0
 396 752 413 728 413 710 c 0
 413 696 404 672 399 672 c 0
 398 672 397 673 397 673 c 2
 397 672 396 671 396 671 c 0
 394 671 399 715 361 715 c 0
 336 715 316 695 316 670 c 0
 316 637 343 609 373 609 c 0
 406 609 465 660 465 713 c 0
 465 754 444 754 444 767 c 0
 444 786 474 799 483 799 c 0
 495 799 516 777 516 754 c 0
 516 693 386 558 334 558 c 0
EndSplineSet
Validated: 1
EndChar

StartChar: ADLAM_CONSONANT_MODIFIER
Encoding: 72 125256 76
Width: 1024
VWidth: 0
Flags: HW
HStem: 530 103<323 379>
VStem: 210 287<713 761>
LayerCount: 2
Back
Fore
SplineSet
210 713 m 3
 210 726 240 766 265 766 c 3
 304 766 362 634 374 634 c 0
 384 634 470 767 492 767 c 0
 493 767 494 767 495 766 c 0
 496 765 497 763 497 761 c 0
 497 734 394 624 383 611 c 0
 375 601 359 530 330 530 c 3
 317 530 304 592 275 641 c 0
 256 674 210 682 210 713 c 3
EndSplineSet
Validated: 1
EndChar

StartChar: ADLAM_GEMINATE_CONSONANT_MOD
Encoding: 73 125257 77
Width: 1024
VWidth: 0
Flags: HW
HStem: 504 261
LayerCount: 2
Back
Fore
SplineSet
224 623 m 0
 191 650 143 684 143 688 c 0
 143 689 l 0
 143 727 188 760 206 760 c 3
 244 760 315 621 318 621 c 0
 324 621 417 765 447 765 c 0
 448 765 450 765 451 764 c 0
 454 762 455 759 455 756 c 0
 455 729 371 656 322 595 c 0
 300 568 293 508 270 508 c 0
 269 508 l 0
 242 510 257 595 224 623 c 0
342 510 m 0
 341 511 341 512 341 514 c 0
 341 535 386 600 420 645 c 0
 456 693 508 765 529 765 c 0
 530 765 531 765 532 764 c 0
 536 761 539 758 539 753 c 0
 539 728 481 677 452 637 c 0
 417 591 374 504 351 504 c 0
 348 504 344 506 342 510 c 0
EndSplineSet
Validated: 1
EndChar

StartChar: ADLAM_NUKTA
Encoding: 74 125258 78
Width: 1024
VWidth: 0
Flags: HW
HStem: 594 128
VStem: 329 90<666 677>
LayerCount: 2
Back
Fore
SplineSet
333 594 m 26
 329 677 l 26
 414 722 l 18
 414 722 418 697 418 680 c 0
 418 673 418 669 416 666 c 0
 388 631 333 594 333 594 c 26
EndSplineSet
Validated: 1
EndChar

StartChar: NameMe.66
Encoding: 66 125250 79
Width: 1024
VWidth: 0
Flags: HW
HStem: 39 75<262 438> 565 67<218 406>
VStem: 98 92<159 507> 325 75<303 375> 435 75<312 471>
LayerCount: 2
Back
Fore
SplineSet
314 114 m 3
 367 114 435 225 435 348 c 3
 435 473 385 565 281 565 c 3
 198 565 190 507 190 421 c 0
 190 400 190 378 190 355 c 3
 190 203 192 154 221 154 c 3
 245 154 325 270 325 314 c 3
 325 397 232 418 232 418 c 26
 232 418 257 470 332 470 c 3
 378 470 399 419 399 373 c 3
 399 286 260 164 260 140 c 3
 260 116 291 114 314 114 c 3
270 39 m 3
 136 39 98 106 98 336 c 3
 98 552 152 632 358 632 c 3
 453 632 510 539 510 444 c 3
 510 247 367 114 367 114 c 26
 503 109 l 26
 502 27 l 26
 473 -12 l 26
 438 43 l 26
 438 43 336 39 270 39 c 3
EndSplineSet
Validated: 1
EndChar

StartChar: NameMe.65
Encoding: 65 125249 80
Width: 1024
VWidth: 0
Flags: HW
HStem: 135 69<137 395> 551 45<301 445>
VStem: 100 92<436 636> 461 65<-23 170 291 526>
LayerCount: 2
Back
Fore
SplineSet
122 473 m 7
 122 605 100 598 100 616 c 3
 100 627 134 647 158 647 c 3
 194 647 198 601 193 567 c 0
 167 383 185 390 295 350 c 0
 349 330 455 291 455 291 c 10
 455 291 461 372 461 424 c 7
 461 524 455 551 375 551 c 7
 285 551 299 502 260 502 c 3
 247 502 250 491 250 528 c 3
 250 559 329 596 398 596 c 31
 484 596 525 510 525 424 c 27
 525 252 509 154 519 -16 c 0
 521 -46 459 -73 459 -63 c 3
 459 33 440 182 440 182 c 26
 395 137 l 26
 74 135 l 26
 74 135 78 165 88 180 c 24
 102 203 135 229 135 229 c 26
 135 229 146 203 158 204 c 0
 264 213 401 199 401 199 c 26
 468 197 350 275 260 295 c 0
 174 315 122 303 122 473 c 7
EndSplineSet
Validated: 33
EndChar

StartChar: NameMe.64
Encoding: 64 125248 81
Width: 1024
VWidth: 0
Flags: HW
HStem: -13 129<121 214> -9 75<233 451> 268 97<214 265> 605 88<224 329>
VStem: 125 78<370 583> 312 82<486 613> 498 82<95 211>
LayerCount: 2
Back
Fore
SplineSet
312 498 m 3x3e
 312 546 298 605 250 605 c 3
 210 605 203 576 203 542 c 0
 203 525 205 506 205 490 c 3
 205 481 205 473 205 464 c 0
 205 412 207 366 238 366 c 3
 268 366 312 475 312 498 c 3x3e
125 458 m 3
 125 655 240 693 311 693 c 3
 347 693 394 635 394 592 c 3
 394 463 267 373 267 354 c 0
 267 353 267 352 267 352 c 0
 271 346 300 345 335 345 c 0
 396 345 476 350 476 350 c 10
 476 350 507 395 507 472 c 3
 507 586 481 550 481 569 c 3
 481 586 602 673 602 673 c 18
 602 673 603 655 603 628 c 0
 603 582 601 510 585 460 c 8
 568 405 505 371 505 343 c 3
 505 315 580 296 580 186 c 3
 580 83 512 -9 296 -9 c 3x7e
 254 -9 204 -13 162 -13 c 0
 110 -13 70 -8 70 20 c 3
 70 30 131 116 150 116 c 3xbe
 167 116 238 67 404 67 c 3
 429 67 448 66 461 66 c 0x7e
 498 66 498 72 498 117 c 3
 498 259 422 268 257 268 c 3
 153 268 125 284 125 458 c 3
EndSplineSet
Validated: 1
EndChar

StartChar: NameMe.63
Encoding: 63 125247 82
Width: 1024
VWidth: 0
Flags: HW
HStem: -27 85<299 502> -14 76<299 618> 543 72<425 519>
VStem: 217 72<68 408> 360 74<197 323> 567 78<357 492>
LayerCount: 2
Back
Fore
SplineSet
360 254 m 3x3c
 360 362 506 434 506 434 c 26
 506 434 434 353 434 291 c 27
 434 251 431 193 399 193 c 3
 369 193 360 224 360 254 c 3x3c
506 -14 m 27x7c
 422 -14 375 -27 291 -27 c 27
 243 -27 207 15 207 63 c 27
 207 154 217 206 217 297 c 27
 217 368 209 406 209 477 c 27
 209 507 170 513 170 543 c 3
 170 569 204 587 238 587 c 3
 312 587 272 489 301 489 c 0
 328 489 401 614 489 614 c 27
 581 614 645 528 645 436 c 27
 645 316 464 186 464 186 c 26
 464 186 567 306 567 379 c 3
 567 464 547 543 446 543 c 3
 295 543 289 308 289 180 c 3
 289 74 295 59 354 59 c 0xbc
 379 59 414 61 461 61 c 3
 586 61 674 55 674 55 c 26
 618 -16 l 26
 618 -16 550 -14 506 -14 c 27x7c
EndSplineSet
Validated: 1
EndChar

StartChar: NameMe.62
Encoding: 62 125246 83
Width: 1566
VWidth: 0
Flags: HW
HStem: -45 78<373 471> 215 68<618 682>
VStem: 248 92<69 285> 682 88<93 215 285 429>
LayerCount: 2
Back
Fore
SplineSet
248 158 m 7
 248 498 601 602 768 602 c 7
 813 602 770 564 770 324 c 3
 770 35 823 59 823 16 c 3
 823 -11 799 -31 772 -31 c 27
 707 -31 682 41 682 106 c 27
 682 148 682 215 682 215 c 26
 518 197 l 26
 518 197 424 200 424 240 c 7
 424 259 468 311 483 311 c 3
 507 311 517 283 592 283 c 3
 629 283 686 285 686 285 c 26
 694 532 l 26
 694 532 340 600 340 215 c 3
 340 53 375 33 428 33 c 3
 453 33 483 5 483 0 c 3
 483 -28 435 -45 397 -45 c 7
 259 -45 248 65 248 158 c 7
EndSplineSet
Validated: 33
EndChar

StartChar: NameMe.61
Encoding: 61 125245 84
Width: 1024
VWidth: 0
Flags: HW
HStem: 16 72<446 555> 621 71<282 531>
VStem: 31 92<88 179> 88 80<422 510> 340 295<37 225> 584 74<493 569>
LayerCount: 2
Back
Fore
SplineSet
584 510 m 27xc4
 584 571 514 621 473 621 c 7
 425 621 428 573 428 535 c 27
 428 497 434 438 434 438 c 26
 434 438 584 445 584 510 c 27xc4
197 -49 m 27
 109 -49 31 16 31 104 c 27xe8
 31 270 334 403 334 403 c 26
 334 403 357 470 354 530 c 24
 353 543 320 563 326 575 c 24
 338 602 384 615 384 615 c 30
 384 615 338 621 307 621 c 7
 243 621 168 554 168 475 c 27
 168 434 207 418 207 377 c 27
 207 359 184 354 166 354 c 27
 123 354 88 391 88 434 c 3
 88 555 268 691 438 691 c 27
 513 691 557 683 620 644 c 24
 653 624 657 600 657 561 c 3xd4
 657 426 460 420 440 377 c 0
 422 340 405 170 431 128 c 0
 453 92 485 88 530 88 c 27
 575 88 635 69 635 37 c 3
 635 -1 618 -48 588 -47 c 0
 565 -46 565 0 537 10 c 24
 493 26 463 16 416 16 c 3
 344 16 340 138 340 225 c 27
 340 276 342 305 344 356 c 17
 240 315 123 280 123 143 c 7xe8
 123 54 276 11 276 -27 c 3
 276 -60 230 -49 197 -49 c 27
EndSplineSet
Validated: 33
EndChar

StartChar: NameMe.60
Encoding: 60 125244 85
Width: 1024
VWidth: 0
Flags: HW
HStem: 156 63<517 580> 158 45<578 739> 578 41<295 396> 592 50<532 669>
VStem: 166 72<27 444> 426 72<238 547> 695 52<376 507>
LayerCount: 2
Back
Fore
SplineSet
547 219 m 3x9e
 563 219 695 332 695 418 c 3
 695 511 624 592 572 592 c 3
 497 592 498 574 498 417 c 3
 498 337 498 219 547 219 c 3x9e
164 496 m 1048
244 -80 m 3
 142 -80 166 132 166 272 c 3
 166 477 236 618 377 618 c 3
 413 618 444 578 459 578 c 3xae
 473 578 533 642 623 642 c 3
 714 642 748 542 748 451 c 3
 748 337 578 210 578 210 c 30
 793 203 l 26
 739 135 l 26
 739 135 729 157 717 158 c 24x5e
 640 165 595 150 518 156 c 0
 420 164 426 256 426 334 c 3
 426 449 450 578 338 578 c 3xae
 203 578 238 392 238 264 c 27
 238 161 224 99 251 0 c 24
 260 -33 322 -51 322 -51 c 26
 322 -51 293 -80 244 -80 c 3
EndSplineSet
Validated: 33
EndChar

StartChar: NameMe.59
Encoding: 59 125243 86
Width: 1024
VWidth: 0
Flags: HW
HStem: 133 70<301 428> 432 63<245 361> 645 66<253 457>
VStem: 104 82<229 374> 131 74<533 617> 484 93<154 319>
LayerCount: 2
Back
Fore
SplineSet
410 203 m 7xf4
 446 203 484 224 484 260 c 7
 484 320 384 432 282 432 c 31
 234 432 186 402 186 344 c 7
 186 257 323 203 410 203 c 7xf4
342 133 m 3
 251 133 104 169 104 291 c 3xf4
 104 414 207 425 207 442 c 3
 207 444 131 447 131 551 c 3
 131 666 287 711 371 711 c 3
 422 711 565 711 565 629 c 27
 565 582 543 516 522 516 c 0
 513 516 533 645 352 645 c 3
 291 645 205 658 205 594 c 3xec
 205 517 275 496 338 496 c 27
 468 496 578 386 578 270 c 3
 578 21 328 -88 328 -88 c 18
 328 -88 482 28 487 213 c 0
 489 278 447 133 342 133 c 3
EndSplineSet
Validated: 33
EndChar

StartChar: NameMe.58
Encoding: 58 125242 87
Width: 1024
VWidth: 0
Flags: HW
HStem: -39 62<332 568> 242 75<306 502>
VStem: 610 84<51 138>
LayerCount: 2
Back
Fore
SplineSet
383 -39 m 3
 242 -39 158 -32 158 10 c 3
 158 50 182 86 221 86 c 3
 260 86 273 39 453 28 c 0
 472 27 500 24 527 24 c 0
 570 24 610 32 610 70 c 3
 610 127 539 242 416 242 c 3
 394 242 372 242 352 242 c 0
 257 242 186 252 186 381 c 3
 186 444 184 545 184 545 c 26
 256 598 l 18
 257 599 258 599 259 599 c 0
 275 599 268 490 276 428 c 0
 289 333 317 316 353 316 c 0
 370 316 391 321 414 321 c 11
 463 321 490 303 539 303 c 0
 539 303 621 377 621 438 c 3
 621 551 571 526 571 549 c 3
 571 578 711 612 711 612 c 18
 711 612 711 610 711 607 c 0
 711 584 709 481 682 422 c 8
 653 359 565 311 565 295 c 3
 565 267 694 275 694 123 c 3
 694 -14 520 -39 383 -39 c 3
EndSplineSet
Validated: 1
EndChar

StartChar: ADLAM_SMALL_LETTER_QAAF
Encoding: 57 125241 88
Width: 1024
VWidth: 0
Flags: HW
HStem: -2 64<159 402> 12 41<254 430> 191 42<296 381> 220 13<404 419> 465 64<281 370>
VStem: 152 57<325 414> 434 58<265 341> 435 78<106 220 237 261> 655 78<62 131 303 323 382 513>
LayerCount: 2
Back
Fore
SplineSet
434 281 m 3x1e80
 434 367 391 465 311 465 c 3
 260 465 209 432 209 381 c 3
 209 337 282 233 354 233 c 3x2e80
 364 233 373 233 381 233 c 0
 416 233 434 238 434 281 c 3x1e80
331 191 m 0
 221 191 152 240 152 330 c 0
 152 446 258 522 375 528 c 16
 377 528 378 528 380 528 c 0
 462 528 495 424 500 348 c 0
 500 346 500 345 500 343 c 0
 500 321 493 287 493 272 c 0x2e80
 493 267 493 264 495 264 c 0
 497 264 l 0
 563 294 607 344 651 382 c 0
 652 383 653 392 653 406 c 0
 653 442 650 512 650 566 c 0
 650 607 651 639 659 639 c 0
 659 639 l 10
 741 635 l 18
 741 635 734 451 734 268 c 0
 734 203 734 137 737 80 c 8
 738 66 768 57 768 57 c 26
 768 57 730 12 696 0 c 16
 694 -1 692 -1 690 -1 c 0
 673 -1 651 23 649 39 c 0
 645 69 644 100 644 132 c 0
 644 220 655 303 655 303 c 2
 655 304 l 0
 655 318 649 323 639 323 c 0
 601 323 513 249 513 234 c 0
 513 233 l 0
 513 229 514 225 514 221 c 0
 514 126 429 12 412 12 c 0x6d80
 412 12 l 1
 407 1 320 -2 245 -2 c 0
 185 -2 131 0 131 0 c 2
 131 0 155 51 186 57 c 16
 207 61 229 63 251 63 c 0x8d80
 309 63 368 53 403 53 c 0
 415 53 425 54 430 57 c 0
 438 62 440 86 440 114 c 0
 440 155 435 202 435 202 c 2
 435 203 435 203 435 204 c 0
 435 216 431 220 424 220 c 0x5d80
 406 220 369 191 331 191 c 0
EndSplineSet
Validated: 5
EndChar
